<?xml version="1.0" encoding="UTF-8" standalone="no"?>
<svg width="180px" height="180px" viewBox="0 0 180 180" version="1.1" xmlns="http://www.w3.org/2000/svg" xmlns:xlink="http://www.w3.org/1999/xlink" xmlns:sketch="http://www.bohemiancoding.com/sketch/ns">
    <title>Slice 1</title>
    <description>Created with Sketch (http://www.bohemiancoding.com/sketch)</description>
    <defs></defs>
    <g id="Page-1" stroke="none" stroke-width="1" fill="none" fill-rule="evenodd" sketch:type="MSPage">
        <path d="M90,178.2 L84.3489,179.82234 L78.94566,177.50448 L73.13562,178.40592 L68.06556,175.42908 L62.18838,175.59504 L57.53142,172.0062 L51.6798,171.43452 L47.50938,167.2902 L41.77566,165.98952 L38.1573,161.35524 L32.63184,159.34626 L29.62296,154.2951 L24.39288,151.60932 L22.04064,146.22084 L17.18847,142.90074 L15.530274,137.2599 L11.132388,133.35786 L10.194246,127.55376 L6.320106,123.13116 L6.116814,117.25524 L2.827512,112.3821 L3.362256,106.52706 L0.709677,101.28006 L1.974042,95.53806 L3.397284e-13,90 L1.974042,84.46194 L0.7096788,78.71994 L3.362274,73.47294 L2.827512,67.6179 L6.116814,62.74476 L6.320124,56.86884 L10.194246,52.44624 L11.132406,46.64214 L15.530274,42.7401 L17.18847,37.09926 L22.04082,33.77916 L24.39288,28.39068 L29.62296,25.7049 L32.63184,20.65374 L38.1573,18.64476 L41.77566,14.01048 L47.50938,12.709746 L51.6798,8.565552 L57.53142,7.99371 L62.18856,4.404906 L68.06556,4.570956 L73.1358,1.5941412 L78.94566,2.495484 L84.3489,0.17759178 L90,1.7999982 L95.6511,0.17759466 L101.05434,2.495484 L106.86438,1.5941484 L111.93444,4.570974 L117.81162,4.404924 L122.46858,7.99371 L128.3202,8.56557 L132.49062,12.709764 L138.22434,14.010498 L141.8427,18.64476 L147.36816,20.65374 L150.37704,25.7049 L155.60712,28.39086 L157.95936,33.77916 L162.81162,37.09944 L164.46978,42.7401 L168.86754,46.64214 L169.8057,52.44624 L173.67984,56.86884 L173.88324,62.74476 L177.17256,67.6179 L176.63778,73.47294 L179.29026,78.72012 L178.02594,84.46194 L180,90 L178.02594,95.53806 L179.29026,101.28006 L176.63778,106.52706 L177.17256,112.3821 L173.88324,117.25524 L173.67984,123.13116 L169.8057,127.55376 L168.86754,133.35786 L164.46978,137.2599 L162.81144,142.90074 L157.95918,146.22084 L155.60712,151.60932 L150.37704,154.2951 L147.36816,159.34626 L141.8427,161.35524 L138.22434,165.98952 L132.49062,167.2902 L128.32002,171.43452 L122.46858,172.00638 L117.81144,175.59504 L111.93444,175.42908 L106.8642,178.40592 L101.05434,177.50448 L95.6511,179.82234 L90,178.2 Z M90,7.5 C44.43657,7.5 7.5,44.43657 7.5,90 C7.5,135.56343 44.43657,172.5 90,172.5 C135.56343,172.5 172.5,135.56343 172.5,90 C172.5,44.43657 135.56343,7.5 90,7.5 Z M90,10.5 C133.906578,10.5 169.5,46.093422 169.5,90 C169.5,133.906578 133.906578,169.5 90,169.5 C46.093422,169.5 10.5,133.906578 10.5,90 C10.5,46.093422 46.093422,10.5 90,10.5 Z M52.1425376,42.4852456 C62.5257408,34.2014918 75.6846382,29.25 90,29.25 C123.551253,29.25 150.75,56.448747 150.75,90 C150.75,123.551253 123.551253,150.75 90,150.75 C75.7318878,150.75 62.6126185,145.83114 52.2454414,137.59667 L57.4702134,137.59667 C66.7288829,143.936673 77.9313322,147.645455 90,147.645455 C121.836662,147.645455 147.645455,121.836662 147.645455,90 C147.645455,58.1633378 121.836662,32.3545455 90,32.3545455 C77.7817411,32.3545455 66.4513074,36.1558378 57.1268279,42.6402934 C55.2469228,42.5696367 53.570161,42.5200481 52.1425376,42.4852456 L52.1425376,42.4852456 Z M46.8022955,47.2856158 C35.9504047,58.2595265 29.25,73.3472941 29.25,90 C29.25,106.652706 35.9504047,121.740473 46.8022955,132.714384 L46.8022955,128.171089 C37.8115279,118.004051 32.3545455,104.639288 32.3545455,90 C32.3545455,75.3607116 37.8115279,61.9959493 46.8022955,51.8289105 L46.8022955,47.2856158 L46.8022955,47.2856158 Z M99.4084426,116.630619 L100.908124,116.630619 L135.487285,116.626295 C135.487285,116.626295 135.039984,117.444096 134.81937,117.833766 C134.719735,118.009784 134.621755,118.180834 134.525708,118.346272 C134.246122,118.831634 134.066631,119.149995 133.883184,119.481329 C133.35704,120.431443 132.820499,121.446426 132.301163,122.460948 C132.119556,122.815746 132.035745,122.979895 132.035745,122.979895 L91.5214282,122.979895 L90.0217464,122.979895 L90.0217464,124.477019 L90.1133778,135.556437 L81.6677432,135.556437 L48.5003127,135.502334 L48.5579454,43.5446235 L96.3167116,43.5446235 C96.3882872,43.5446235 96.5460661,43.5478447 96.7843445,43.557895 C97.1936497,43.575156 97.6718624,43.6064516 98.2130948,43.6553726 C99.7723922,43.7962933 101.515044,44.0507161 103.394592,44.4470763 C108.770483,45.5807346 114.14573,47.6211057 119.155188,50.7903055 C123.087058,53.2777252 126.634738,56.3725426 129.709173,60.1356417 C132.858311,63.9902927 135.272191,68.4929828 137.022479,73.5190361 C140.140338,82.4722457 140.895285,91.9308761 140.32452,100.080823 C140.290757,100.562872 140.312561,100.457519 140.312561,100.457519 L100.908124,100.457519 L99.4084426,100.457519 L99.4084426,101.954551 L99.4084426,115.133495 L99.4084426,116.630619 Z M106.875,91.0000007 L90,91.0000007 L90,107.875001 C80.6802075,107.875001 73.125,100.319794 73.125,91.0000007 C73.125,81.6802078 80.6802075,74.125 90,74.125 C99.3197925,74.125 106.875,81.6802078 106.875,91.0000007 Z M132.381729,93.7369458 L133.881415,93.7369458 L133.881415,92.2398749 C133.881415,92.15422 133.879366,92.0007025 133.873378,91.7838099 C133.863687,91.4300898 133.846196,91.0220483 133.819171,90.5641725 C133.74243,89.2637614 133.604626,87.8180204 133.390397,86.2625341 C132.777884,81.8149359 131.674669,77.3644249 129.951771,73.1941029 C128.220916,69.0046503 125.95035,65.327946 123.069242,62.3153033 C121.112023,60.2687185 118.968151,58.4840582 116.668275,56.9450809 C112.61895,54.2353163 108.287242,52.4022074 103.955218,51.2793963 C102.436465,50.8857736 101.023606,50.6086918 99.7509919,50.4279254 C98.9753059,50.317746 98.4099099,50.2639234 98.0891564,50.2465429 L56.5912523,50.2443421 L55.0915664,50.2443421 L55.0915664,51.7413894 L55.0915664,127.474183 L55.0915664,128.971254 L56.5912523,128.971254 L81.6676974,128.971254 L83.1673834,128.971254 L83.1673834,127.474183 L83.2819438,116.383765 L91.1778685,116.383765 L92.6890578,116.383765 L92.6774757,114.875279 L92.5962434,93.7369458 L132.381729,93.7369458 Z M44.2638448,31.512241 L46.7470242,29.5005346 C47.5900574,28.8175653 48.4861892,28.5869691 49.4354464,28.8087389 C50.2872879,29.0126532 51.0546818,29.5361191 51.7376511,30.3791523 C52.2650927,31.0302076 52.6193928,31.7178282 52.800562,32.4420347 C53.1221514,33.7206926 52.7570992,34.7860161 51.7053944,35.6380371 L49.2305618,37.6429815 L44.2638448,31.512241 Z M50.9720316,35.057036 C51.2530427,34.8293796 51.4603022,34.6130848 51.5938164,34.4081452 C51.8286548,34.0381692 51.9239189,33.6153717 51.8796116,33.13974 C51.8431584,32.7591289 51.704449,32.3461583 51.4634791,31.9008157 C51.3181295,31.6360754 51.1654391,31.4049376 51.0054034,31.2073951 C50.3900548,30.4478306 49.761272,29.9802734 49.1190362,29.8047095 C48.4768003,29.6291457 47.8204266,29.8129709 47.1498952,30.3561906 L45.6766812,31.5496904 L49.4904707,36.2572978 L50.9720316,35.057036 Z M53.3704606,30.4022804 L55.6516649,28.9648933 L56.1813793,29.8055761 L53.900175,31.2429632 L53.3704606,30.4022804 Z M54.7939658,24.5665343 L57.7546235,22.9170153 C58.5616531,22.4673819 59.2698273,22.3884434 59.8791675,22.6801973 C60.2379525,22.8533103 60.5210353,23.12598 60.7284244,23.4982145 C60.9706687,23.9330096 61.045786,24.3584369 60.9537783,24.7745092 C60.9074394,24.9929796 60.7978267,25.2303041 60.6249369,25.4864899 C61.0533422,25.4240624 61.4021789,25.4285077 61.6714574,25.499826 C62.148437,25.6275823 62.5341847,25.9557734 62.828712,26.484409 C63.0761847,26.9285881 63.1609318,27.4080847 63.0829558,27.9229133 C62.9666846,28.6927208 62.4549935,29.3303159 61.5478672,29.8357178 L58.6341296,31.4590955 L54.7939658,24.5665343 Z M59.0307924,26.0241989 C59.4249232,25.8046104 59.7009667,25.5790825 59.8589315,25.3476081 C60.1071618,24.9838628 60.1066692,24.5783426 59.8574538,24.1310356 C59.6064956,23.6806004 59.2544634,23.4791371 58.8013466,23.5266396 C58.5460998,23.5540775 58.2151599,23.6810742 57.8085171,23.9076337 L56.1428539,24.8356515 L57.3322852,26.9705156 L59.0307924,26.0241989 Z M61.1175403,29.0302339 C61.6899683,28.7113079 62.0058038,28.3180978 62.0650564,27.8505918 C62.1015642,27.5556189 62.0370377,27.2595558 61.871475,26.9623938 C61.5926326,26.4619103 61.1790239,26.2455669 60.6306364,26.3133571 C60.338881,26.3488385 59.9975071,26.4755002 59.6065044,26.6933459 L57.7531609,27.725929 L59.1046685,30.1516977 L61.1175403,29.0302339 Z M62.1099079,21.1022935 L63.0949821,20.6874874 L65.792264,27.0929448 L69.4751546,25.5421119 L69.8399338,26.4083832 L65.1719691,28.3740222 L62.1099079,21.1022935 Z M74.9697034,17.9610547 C75.67933,18.4682879 76.198892,19.2406308 76.528405,20.2781066 C76.885016,21.4009011 76.8965046,22.4247803 76.5628709,23.349775 C76.1714567,24.435888 75.3563478,25.1756656 74.1175198,25.5691301 C72.9605977,25.9365804 71.929716,25.8432197 71.0248436,25.2890452 C70.2003103,24.7394102 69.6092051,23.9015017 69.2515101,22.7752944 C68.9285007,21.7582951 68.9046438,20.8078479 69.1799388,19.9239243 C69.5335337,18.7897108 70.3450904,18.0210058 71.6146332,17.6177859 C72.9421927,17.1961394 74.0605382,17.3105612 74.9697034,17.9610547 C74.9697034,17.9610547 74.0605382,17.3105612 74.9697034,17.9610547 Z M75.5923107,23.0353128 C75.788989,22.2646485 75.754548,21.4612666 75.4889865,20.625143 C75.2082502,19.7412409 74.7510451,19.1031281 74.1173575,18.7107855 C73.4836699,18.3184428 72.7658389,18.2496336 71.9638428,18.5043558 C71.185736,18.7514905 70.6357899,19.220141 70.3139881,19.9103214 C69.9921864,20.6005018 69.9965839,21.4660232 70.3271808,22.5069118 C70.5916583,23.3396226 71.0254065,23.9748539 71.6284383,24.4126248 C72.2314701,24.8503957 73.0056402,24.9191566 73.9509718,24.6189095 C74.8485249,24.3338375 75.3956324,23.8059772 75.5923107,23.0353128 C75.5923107,23.0353128 75.3956324,23.8059772 75.5923107,23.0353128 Z M77.5911909,16.6840066 L78.6162696,16.4970271 L79.3063591,20.2803073 L82.3995498,15.8069376 L83.8526253,15.5418893 L81.1947325,19.2588537 L85.3582917,23.2875696 L83.9897588,23.5371969 L80.5634991,20.138354 L79.5386378,21.5537298 L80.0321095,24.2590922 L79.0070308,24.4460717 L77.5911909,16.6840066 Z M89.7259178,20.9559096 C89.7634256,21.4026324 89.8791263,21.7629934 90.0730233,22.0370034 C90.4419243,22.5497279 91.0737854,22.7936342 91.9686257,22.7687296 C92.3695142,22.7575724 92.7330096,22.6901426 93.0591231,22.5664381 C93.690073,22.3267857 93.9975739,21.9206167 93.981635,21.3479189 C93.9696808,20.9183956 93.8269396,20.6161004 93.5534069,20.4410244 C93.2763946,20.2696273 92.8461237,20.1257818 92.2625813,20.0094836 L91.1874232,19.7976139 C90.4850645,19.6595475 89.9862887,19.4996982 89.6910807,19.3180612 C89.1808053,19.0027065 88.9165564,18.5175249 88.8983263,17.8625019 C88.8786019,17.1537884 89.1075967,16.5653272 89.5853177,16.0971006 C90.0630386,15.628874 90.7510986,15.3822624 91.6495182,15.3572582 C92.4763506,15.3342464 93.1843434,15.514243 93.7735176,15.8972534 C94.3626919,16.2802638 94.6694776,16.9102313 94.6938841,17.7871748 L93.6898783,17.8151175 C93.624433,17.3942472 93.5008798,17.0735076 93.3192152,16.8528892 C92.9820372,16.4503279 92.4233062,16.2599085 91.6430055,16.2816253 C91.013038,16.2991581 90.5639414,16.444194 90.2957024,16.7167373 C90.0274633,16.9892806 89.898227,17.3009363 89.9079896,17.6517137 C89.9187484,18.0382847 90.0876869,18.3165672 90.4148103,18.4865697 C90.6291804,18.5952317 91.1110026,18.7251052 91.8602914,18.8761939 L92.9733315,19.0977557 C93.5100433,19.2046109 93.9262959,19.3595928 94.2221016,19.562706 C94.7334728,19.9174336 94.998917,20.4455669 95.0184422,21.1471217 C95.0427491,22.0204858 94.7424687,22.6539159 94.117592,23.0474311 C93.4927153,23.4409462 92.759713,23.6494058 91.9185632,23.6728161 C90.9378182,23.7001115 90.1630836,23.4709278 89.5943361,22.9852581 C89.0256882,22.5031677 88.7348831,21.8360391 88.721912,20.9838523 C88.721912,20.9838523 88.7348831,21.8360391 88.721912,20.9838523 L89.7259178,20.9559096 Z M102.651058,16.3976936 L102.575462,17.3345901 L99.9253833,17.120761 L99.3664037,24.0484415 L98.2849575,23.9611819 L98.843937,17.0335015 L96.1938583,16.8196723 L96.2694545,15.8827758 L102.651058,16.3976936 Z M105.375875,17.1846979 L104.502664,21.9828408 C104.400084,22.5465021 104.4205,23.034272 104.563914,23.4461653 C104.77487,24.0668869 105.252005,24.4448809 105.995334,24.5801586 C106.886623,24.7423637 107.548007,24.547911 107.979504,23.9967948 C108.212391,23.697059 108.379802,23.2671283 108.481741,22.7069899 L109.354951,17.908847 L110.42238,18.1031074 L109.628989,22.4626536 C109.455244,23.4173549 109.192988,24.1284643 108.842213,24.596003 C108.199607,25.4471789 107.223062,25.7535127 105.912549,25.5150135 C104.602037,25.2765143 103.797791,24.6460958 103.499787,23.623739 C103.336221,23.0625958 103.341311,22.3046849 103.515056,21.3499836 L104.308446,16.9904374 L105.375875,17.1846979 Z M112.924293,19.211667 L113.956225,19.5288892 L111.63782,27.0707229 L110.605888,26.7535007 L112.924293,19.211667 Z M115.835022,20.2237757 L118.844995,21.2976485 C119.866874,21.6622256 120.530063,22.3075214 120.834583,23.2335552 C121.103666,24.0671077 121.055919,24.9948092 120.691342,26.0166877 C120.409787,26.8058611 120.00692,27.4662007 119.482727,27.9977262 C118.558107,28.9376534 117.458404,29.1802039 116.183585,28.7253849 L113.183729,27.6551218 L115.835022,20.2237757 Z M116.298172,27.796809 C116.638798,27.9183348 116.931348,27.9827898 117.175831,27.9901762 C117.613971,27.9982214 118.024598,27.8595896 118.407723,27.5742767 C118.71379,27.3451113 118.994286,27.0117842 119.24922,26.5742855 C119.399676,26.3124134 119.517617,26.0617561 119.603046,25.822306 C119.931526,24.9016037 120.003648,24.1213628 119.819415,23.4815599 C119.635182,22.8417571 119.136682,22.3768741 118.323901,22.0868969 L116.538152,21.4497925 L114.502306,27.156095 L116.298172,27.796809 Z M129.115317,27.6283264 C129.272287,28.4863566 129.108298,29.4026348 128.623344,30.3771884 C128.098509,31.4318862 127.394539,32.17545 126.511413,32.6079021 C125.474701,33.1159113 124.374514,33.08038 123.21082,32.501307 C122.124064,31.9605198 121.448404,31.1763534 121.18382,30.1487843 C120.973794,29.1803614 121.131994,28.1672133 121.658424,27.1093097 C122.133806,26.1539907 122.77781,25.4545782 123.590455,25.0110511 C124.633457,24.4421782 125.751214,24.4544566 126.94376,25.0478867 C128.190804,25.668436 128.914649,26.528574 129.115317,27.6283264 C129.115317,27.6283264 128.914649,26.528574 129.115317,27.6283264 Z M126.03289,31.706853 C126.710271,31.2900067 127.244371,30.6888859 127.635205,29.9034726 C128.048373,29.0731785 128.163788,28.2967098 127.981455,27.574043 C127.799122,26.8513763 127.331284,26.3026102 126.577929,25.9277282 C125.847014,25.564013 125.125924,25.51815 124.414638,25.7901378 C123.703352,26.0621257 123.104443,26.6869899 122.617894,27.6647493 C122.228655,28.4469568 122.098392,29.2050385 122.227101,29.9390172 C122.355811,30.6729958 122.864157,31.2609174 123.752154,31.7027995 C124.595272,32.1223483 125.355509,32.1236994 126.03289,31.706853 C126.03289,31.706853 125.355509,32.1236994 126.03289,31.706853 Z M129.512511,33.3819999 C129.284305,33.7678631 129.169865,34.1286263 129.169186,34.4643004 C129.172874,35.0959338 129.54663,35.6607748 130.290465,36.1588403 C130.623703,36.3819737 130.959059,36.5375767 131.296542,36.6256539 C131.949673,36.7958056 132.435612,36.6428566 132.754374,36.1668024 C132.993445,35.8097617 133.052207,35.4806654 132.930662,35.1795034 C132.80415,34.8793246 132.536752,34.5128236 132.128461,34.0799896 L131.374803,33.284468 C130.882272,32.765062 130.568305,32.3458321 130.432892,32.0267659 C130.199633,31.4741181 130.265294,30.9255589 130.629878,30.3810719 C131.024346,29.7919548 131.551891,29.4449374 132.21253,29.3400092 C132.873169,29.2350811 133.576882,29.432643 134.323693,29.9327008 C135.010996,30.3929134 135.48383,30.9497616 135.74221,31.6032622 C136.00059,32.2567628 135.88573,32.9479818 135.397626,33.6769398 L134.563047,33.118113 C134.753504,32.7371391 134.838592,32.4041236 134.818313,32.1190564 C134.776667,31.5955966 134.431537,31.1167173 133.782914,30.6824041 C133.259254,30.331766 132.809167,30.1898345 132.432638,30.2566054 C132.05611,30.3233763 131.770229,30.5025506 131.574987,30.7941338 C131.359823,31.1154704 131.336325,31.4401691 131.504492,31.7682396 C131.616285,31.980994 131.933797,32.3659687 132.457039,32.9231755 L133.23596,33.7485418 C133.611549,34.1465504 133.861069,34.5140082 133.984528,34.8509265 C134.195872,35.4363031 134.106304,36.0205658 133.715821,36.6037322 C133.229709,37.3297149 132.618007,37.6720931 131.880697,37.6308772 C131.143387,37.5896612 130.42514,37.3349663 129.725936,36.8667847 C128.910693,36.3209048 128.411948,35.6853004 128.229688,34.9599524 C128.045434,34.2375796 128.194848,33.525327 128.677932,32.8231732 C128.677932,32.8231732 128.194848,33.525327 128.677932,32.8231732 L129.512511,33.3819999 Z M139.777914,40.1378371 C139.545574,40.3911814 139.270703,40.5253486 138.953292,40.5403428 C138.635881,40.5553369 138.350508,40.4466656 138.097163,40.2143255 C137.843819,39.9819854 137.710917,39.7070594 137.698452,39.3895391 C137.685988,39.0720188 137.795924,38.7865908 138.028264,38.5332465 C138.260604,38.2799022 138.534265,38.1470545 138.849256,38.1346994 C139.164247,38.1223443 139.44841,38.2323351 139.701754,38.4646752 C139.955098,38.6970152 140.089211,38.9706218 140.104096,39.2855031 C140.11898,39.6003843 140.010254,39.8844928 139.777914,40.1378371 C139.777914,40.1378371 140.010254,39.8844928 139.777914,40.1378371 Z M146.233602,41.3833208 L142.439456,46.7698385 L148.413373,43.8221758 L149.186494,44.6871884 L145.589207,50.2939639 L151.366265,47.1260434 L152.146544,47.9990654 L144.882062,51.7111929 L144.133996,50.8742131 L147.798336,45.1570818 L141.700098,48.1510253 L140.952032,47.3140455 L145.460481,40.5183082 L146.233602,41.3833208 Z M152.792638,50.2734401 L155.915876,55.104171 L155.103989,55.6290851 L152.546491,51.6733885 L150.534814,52.974009 L152.899843,56.6320134 L152.133061,57.1277656 L149.768031,53.4697612 L147.521809,54.9220235 L150.12305,58.9453773 L149.333715,59.4557105 L146.166733,54.5573222 L152.792638,50.2734401 Z M158.020029,60.2024096 L158.643368,61.6005083 L153.47358,66.3871207 L160.482765,65.726126 L161.099542,67.109508 L153.893201,70.322437 L153.479829,69.3952767 L157.732993,67.4990144 C157.880162,67.4333994 158.125263,67.3280422 158.468303,67.1829397 C158.811343,67.0378371 159.177448,66.8785306 159.566628,66.7050156 L152.57216,67.3594487 L152.141291,66.3930436 L157.296363,61.6129927 L157.07561,61.7114147 C156.899007,61.7901526 156.631842,61.9141683 156.274105,62.0834655 C155.916369,62.2527627 155.652473,62.3753203 155.482411,62.451142 L151.229248,64.3474044 L150.813689,63.4153386 L158.020029,60.2024096 Z M162.036241,71.9651822 L162.372799,73.125868 L155.592079,78.0727546 L155.265992,76.948179 L157.312901,75.5213889 L156.443833,72.5242404 L153.936213,72.3621807 L153.631067,71.3098256 L162.036241,71.9651822 Z M158.052863,74.9489164 L161.06723,72.8277645 L157.364788,72.5759589 L158.052863,74.9489164 Z M163.128167,77.6299824 L163.308048,78.6563306 L159.520082,79.3202206 L163.971938,82.444296 L164.226924,83.8991711 L160.528443,81.215618 L156.471009,85.351196 L156.230858,83.9809683 L159.653332,80.5783129 L158.245083,79.5436808 L155.53637,80.0184178 L155.356489,78.9920696 L163.128167,77.6299824 Z M164.003341,85.7421471 L164.377469,91.4824094 L163.412719,91.545288 L163.10636,86.8448119 L160.715924,87.0006112 L160.999227,91.3473457 L160.088074,91.4067312 L159.804771,87.0599966 L157.13563,87.233961 L157.447228,92.014833 L156.509277,92.075965 L156.129909,86.2553069 L164.003341,85.7421471 Z M163.74504,96.9443623 L163.449126,100.320579 C163.368465,101.240884 163.036435,101.871359 162.453028,102.212023 C162.108416,102.411865 161.723874,102.493183 161.299393,102.455979 C160.80357,102.412521 160.409279,102.235984 160.116508,101.92636 C159.961674,101.765416 159.826738,101.541518 159.711695,101.25466 C159.522983,101.644296 159.323564,101.930546 159.113435,102.11342 C158.740044,102.436546 158.251939,102.571689 157.649103,102.518853 C157.142579,102.474458 156.698129,102.275551 156.315741,101.922128 C155.743786,101.393933 155.503145,100.612622 155.593811,99.578171 L155.885036,96.2554598 L163.74504,96.9443623 Z M160.161118,99.633412 C160.121725,100.082863 160.15351,100.437902 160.256472,100.69854 C160.418271,101.108113 160.75421,101.33525 161.264302,101.379958 C161.77796,101.424978 162.14225,101.246633 162.357183,100.844918 C162.477695,100.618245 162.558272,100.273054 162.598916,99.8093349 L162.765396,97.9098784 L160.330882,97.6965015 L160.161118,99.633412 Z M156.502003,99.673946 C156.44479,100.32672 156.593043,100.808786 156.946766,101.120158 C157.170441,101.315891 157.45171,101.428607 157.790582,101.458308 C158.361313,101.50833 158.772472,101.287366 159.02407,100.795408 C159.15841,100.534002 159.245119,100.180363 159.284199,99.7344786 L159.469438,97.6209989 L156.703187,97.3785464 L156.502003,99.673946 Z M162.493168,105.041187 L161.371753,110.683262 L160.423505,110.494789 L161.341788,105.874714 L158.99224,105.40772 L158.143064,109.680103 L157.247497,109.502101 L158.096673,105.229717 L155.473187,104.708275 L154.539198,109.40737 L153.61729,109.224133 L154.754411,103.503037 L162.493168,105.041187 Z M159.737576,114.906537 L159.374351,116.059156 L150.98859,116.418126 L151.340515,115.301366 L153.835061,115.248383 L154.772989,112.272065 L152.775658,110.747241 L153.104982,109.7022 L159.737576,114.906537 Z M154.768264,115.182049 L158.452926,115.087378 L155.510858,112.825584 L154.768264,115.182049 Z M155.620073,124.688046 L154.755279,124.319779 L155.79695,121.873647 L149.402415,119.150571 L149.827501,118.152352 L156.222036,120.875427 L157.263707,118.429296 L158.128501,118.797563 L155.620073,124.688046 Z M149.549845,124.034197 C149.145598,123.840412 148.776249,123.757779 148.441788,123.786294 C147.812868,123.844898 147.28267,124.266359 146.851178,125.050689 C146.65787,125.402069 146.532021,125.749686 146.473626,126.093551 C146.360918,126.759004 146.555547,127.229801 147.057518,127.505956 C147.433997,127.713072 147.766956,127.742992 148.056407,127.595717 C148.344447,127.443579 148.686305,127.145322 149.081993,126.700936 L149.80896,125.880952 C150.283565,125.345117 150.673903,124.995881 150.979984,124.833235 C151.510253,124.552799 152.062444,124.570506 152.636574,124.886358 C153.257764,125.2281 153.649344,125.723468 153.811327,126.372479 C153.973309,127.02149 153.837693,127.739719 153.404476,128.527186 C153.005777,129.251908 152.492158,129.771377 151.863603,130.085609 C151.235048,130.399841 150.536459,130.345527 149.767816,129.922665 L150.251947,129.042651 C150.64804,129.199255 150.987194,129.25506 151.269417,129.210067 C151.787272,129.123057 152.234324,128.73759 152.610584,128.053653 C152.914355,127.501485 153.016607,127.04076 152.917345,126.671464 C152.818082,126.302169 152.614725,126.032953 152.307268,125.863808 C151.968437,125.677404 151.642925,125.682232 151.330722,125.878293 C151.128495,126.008164 150.772591,126.357952 150.262999,126.927669 L149.508498,127.775416 C149.14466,128.184194 148.800293,128.464725 148.475388,128.617016 C147.910608,128.878466 147.32077,128.840047 146.705855,128.501758 C145.940348,128.080622 145.546071,127.501012 145.523011,126.762911 C145.499952,126.02481 145.69122,125.287135 146.096822,124.549864 C146.569737,123.690238 147.159561,123.138109 147.866311,122.893459 C148.569923,122.647083 149.292471,122.73399 150.033976,123.154183 C150.033976,123.154183 149.292471,122.73399 150.033976,123.154183 L149.549845,124.034197 Z M143.690722,134.857544 C143.418484,134.647659 143.261361,134.385233 143.219348,134.070258 C143.177335,133.755282 143.26127,133.46168 143.471155,133.189442 C143.681039,132.917203 143.943628,132.761336 144.258928,132.721834 C144.574228,132.682332 144.867992,132.767522 145.140231,132.977407 C145.412469,133.187292 145.568174,133.448625 145.607351,133.761413 C145.646528,134.074202 145.561176,134.366712 145.351291,134.63895 C145.141407,134.911188 144.880236,135.068149 144.567772,135.109837 C144.255308,135.151525 143.962961,135.067428 143.690722,134.857544 C143.690722,134.857544 143.962961,135.067428 143.690722,134.857544 Z M143.001126,141.392109 L137.310606,138.07125 L140.757089,143.771965 L139.961175,144.616052 L134.067992,141.510123 L137.717139,146.995909 L136.913855,147.847811 L132.59561,140.926442 L133.365731,140.10971 L139.374587,143.273034 L135.871387,137.452399 L136.641508,136.635666 L143.79704,140.548022 L143.001126,141.392109 Z M134.717659,148.687345 L130.176169,152.217989 L129.582783,151.454713 L133.301632,148.563607 L131.831355,146.672379 L128.392374,149.345911 L127.831954,148.625039 L131.270935,145.951508 L129.629235,143.839778 L125.84678,146.780333 L125.269877,146.03826 L129.874974,142.458167 L134.717659,148.687345 Z M120.440677,157.4653 L119.982258,156.644726 L122.303309,155.348053 L118.913622,149.280497 L119.860798,148.75135 L123.250485,154.818906 L125.571536,153.522233 L126.029956,154.342806 L120.440677,157.4653 Z M118.776248,157.871533 L117.78573,158.300939 L116.488968,155.309674 L112.724016,156.941842 L114.020778,159.933107 L113.03026,160.362513 L109.891968,153.123357 L110.882486,152.693951 L112.350155,156.079452 L116.115108,154.447283 L114.647438,151.061783 L115.637956,150.632377 L118.776248,157.871533 Z M110.432603,160.799366 L106.933319,161.84561 C106.356963,162.017933 105.85669,162.075944 105.432484,162.019646 C104.625913,161.909488 104.09288,161.420434 103.833369,160.55247 C103.697972,160.09962 103.68068,159.70116 103.78149,159.35708 C103.882301,159.012999 104.074651,158.70322 104.358546,158.427733 C104.027606,158.395872 103.75829,158.304478 103.550588,158.153549 C103.342886,158.002619 103.164814,157.710159 103.016367,157.276159 L102.677242,156.273166 C102.580788,155.988066 102.492666,155.780831 102.412874,155.651456 C102.27932,155.429771 102.123382,155.308215 101.945056,155.286785 L101.894282,155.116967 L103.149908,154.74155 C103.203704,154.796476 103.256279,154.872321 103.307635,154.969087 C103.358991,155.065853 103.435636,155.259702 103.537572,155.550638 L103.976279,156.792946 C104.148,157.279785 104.430521,157.555966 104.82385,157.621496 C105.047094,157.655658 105.367984,157.61017 105.786528,157.48503 L108.117668,156.788047 L107.148355,153.546063 L108.17241,153.239883 L110.432603,160.799366 Z M106.005912,158.350037 C105.525616,158.49364 105.174393,158.703296 104.952233,158.979012 C104.730073,159.254728 104.693872,159.64302 104.843629,160.1439 C105.004669,160.682518 105.309967,160.991131 105.759533,161.069746 C105.999577,161.110097 106.294559,161.077961 106.64449,160.973336 L109.145449,160.225579 L108.373075,157.642284 L106.005912,158.350037 Z M95.4328169,162.675833 C94.7978964,162.077726 94.3869848,161.242496 94.2000697,160.170116 C93.9977833,159.009548 94.1241709,157.993434 94.5792363,157.121745 C95.1132366,156.098178 96.020476,155.474808 97.3009817,155.251616 C98.4968258,155.043182 99.5057699,155.274407 100.327844,155.9453 C101.070921,156.600884 101.543903,157.510711 101.746804,158.674807 C101.93003,159.726021 101.825779,160.671035 101.434048,161.509876 C100.931051,162.586196 100.023439,163.238708 98.7111852,163.467433 C97.3389629,163.70661 96.2461844,163.442746 95.4328169,162.675833 C95.4328169,162.675833 96.2461844,163.442746 95.4328169,162.675833 Z M95.4986564,157.563945 C95.2000673,158.301136 95.1260932,159.101846 95.276732,159.966099 C95.4359788,160.879738 95.8031624,161.573568 96.3782939,162.047611 C96.9534255,162.521653 97.6554695,162.686427 98.484447,162.541937 C99.2887315,162.40175 99.8967371,162.011362 100.308482,161.370759 C100.720227,160.730157 100.832332,159.871915 100.644803,158.796008 C100.494779,157.935283 100.150451,157.247464 99.6118089,156.732531 C99.0731671,156.217598 98.3152899,156.045292 97.3381547,156.215606 C96.4104055,156.377312 95.7972455,156.826754 95.4986564,157.563945 C95.4986564,157.563945 95.7972455,156.826754 95.4986564,157.563945 Z M92.1264086,163.615835 L90.3468814,157.272066 L88.8588292,163.765301 L87.6998848,163.818314 L85.625256,157.488044 L84.4323053,163.96778 L83.26263,164.021284 L84.9731707,156.044653 L86.0945567,155.993358 L88.2123887,162.445317 L89.7430854,155.826466 L90.8644715,155.775172 L93.285353,163.562822 L92.1264086,163.615835 Z M77.8612186,162.625854 L74.3521749,162.086232 C73.6585026,161.979559 73.1293957,161.698034 72.7648381,161.241648 C72.4002805,160.785263 72.2724287,160.203164 72.3812789,159.495336 C72.47489,158.886603 72.7457317,158.385741 73.1938121,157.992735 C73.6418925,157.599729 74.2587685,157.46364 75.0444584,157.584463 L77.497073,157.961627 L78.0040401,154.664931 L79.0604693,154.827389 L77.8612186,162.625854 Z M73.9065827,160.919994 C74.1232945,161.065628 74.4351464,161.169738 74.842148,161.232327 L76.9443891,161.55561 L77.3599225,158.853487 L75.2576814,158.530204 C74.7834361,158.457274 74.3830491,158.498952 74.0565082,158.655238 C73.7299674,158.811524 73.527514,159.144481 73.4491419,159.654118 C73.3609732,160.227459 73.513452,160.649414 73.9065827,160.919994 C73.9065827,160.919994 73.513452,160.649414 73.9065827,160.919994 Z M68.7343107,160.565134 L67.5632196,160.266791 L66.7368838,151.914126 L67.8715409,152.203188 L68.063637,154.690891 L71.0876543,155.461279 L72.4986518,153.381974 L73.560441,153.652472 L68.7343107,160.565134 Z M68.1819403,155.618938 L68.4820677,159.292576 L70.5761709,156.228884 L68.1819403,155.618938 Z M63.1786555,158.587134 L59.7588647,157.304696 C59.1956023,157.09347 58.7620563,156.837196 58.4582139,156.535866 C57.8823801,155.960446 57.7535133,155.248624 58.0716097,154.400377 C58.2375731,153.957814 58.4647204,153.629983 58.7530584,153.416874 C59.0413965,153.203766 59.3819064,153.073326 59.7745984,153.025551 C59.5302671,152.800077 59.3710144,152.564444 59.2968357,152.318644 C59.2226569,152.072845 59.2576522,151.732231 59.4018226,151.296792 L59.7381486,150.292857 C59.8337034,150.007454 59.8888144,149.789109 59.9034834,149.637816 C59.9311447,149.380492 59.8804358,149.189387 59.7513551,149.064497 L59.8135911,148.898536 L61.0406924,149.358705 C61.0503313,149.43498 61.0463496,149.52718 61.0287472,149.635306 C61.0111447,149.743432 60.954986,149.944176 60.8602694,150.237542 L60.4585639,151.492303 C60.3009823,151.983901 60.3590244,152.374701 60.6326921,152.664716 C60.7898519,152.826906 61.0729455,152.984694 61.4819814,153.138084 L63.7601655,153.992414 L64.9483062,150.824079 L65.9490979,151.19938 L63.1786555,158.587134 Z M61.133712,153.959714 C60.6643266,153.783692 60.257811,153.738324 59.9141529,153.823609 C59.5704949,153.908893 59.3068871,154.196282 59.1233216,154.685784 C58.9259258,155.212166 58.9825009,155.64257 59.2930487,155.977009 C59.4598477,156.154287 59.7142338,156.307045 60.0562146,156.43529 L62.5003591,157.351856 L63.4470998,154.827245 L61.133712,153.959714 Z M50.4297283,152.462875 L50.8595457,151.626964 L53.2239791,152.842733 L56.4021716,146.66177 L57.3670515,147.157902 L54.188859,153.338865 L56.5532924,154.554634 L56.1234751,155.390545 L50.4297283,152.462875 Z M48.9876754,151.18311 L48.0818677,150.59572 L52.3747808,143.975663 L53.2805885,144.563053 L48.9876754,151.18311 Z M46.4154973,149.378472 L41.7327755,146.037409 L42.2942986,145.250397 L46.1287963,147.986263 L47.5201258,146.036222 L43.9741992,143.506248 L44.5045266,142.762959 L48.0504532,145.292932 L49.6040004,143.115532 L45.7039184,140.332873 L46.2498436,139.567723 L50.9981498,142.955579 L46.4154973,149.378472 Z M43.292898,139.883394 C43.571981,139.532566 43.7349286,139.190959 43.7817457,138.858566 C43.8649224,138.232422 43.572363,137.621564 42.9040587,137.025973 C42.6046583,136.759148 42.293877,136.558921 41.9717054,136.425286 C41.3481661,136.166965 40.8458149,136.251661 40.4646366,136.679375 C40.1787529,137.000161 40.075308,137.318055 40.1542987,137.633067 C40.238345,137.947787 40.4528218,138.347568 40.7977355,138.83242 L41.4348781,139.723993 C41.8513314,140.306176 42.1046869,140.764586 42.1949522,141.099238 C42.3500251,141.678705 42.2095773,142.21303 41.7736047,142.702229 C41.3018965,143.231526 40.7316555,143.502727 40.0628645,143.515842 C39.3940735,143.528957 38.7241993,143.236532 38.0532218,142.638558 C37.4357086,142.088232 37.0439124,141.471671 36.8778214,140.788855 C36.7117305,140.10604 36.9205215,139.437173 37.5042007,138.782235 L38.2540344,139.450484 C38.0130136,139.801659 37.8829546,140.119816 37.8638533,140.404965 C37.8331442,140.92918 38.1091661,141.450958 38.6919275,141.970313 C39.1624137,142.389609 39.5887168,142.592066 39.9708495,142.57769 C40.3529821,142.563314 40.6607797,142.42514 40.8942514,142.163165 C41.1515467,141.874458 41.2194577,141.556072 41.0979864,141.207998 C41.0165022,140.981896 40.7549262,140.556928 40.3132505,139.933082 L39.6551864,139.008474 C39.3378774,138.562612 39.1412403,138.164342 39.0652692,137.81365 C38.9364023,137.204778 39.105438,136.638375 39.5723814,136.114425 C40.1536783,135.46216 40.8066391,135.207122 41.5312834,135.349304 C42.2559277,135.491486 42.9323427,135.842499 43.5605487,136.402355 C44.2930102,137.055122 44.6996437,137.753254 44.7804614,138.496771 C44.8636615,139.237615 44.617754,139.922566 44.0427317,140.551644 C44.0427317,140.551644 44.617754,139.922566 44.0427317,140.551644 L43.292898,139.883394 Z M34.0533133,131.798111 C34.3181012,131.578902 34.6087314,131.483565 34.9252127,131.512096 C35.241694,131.540628 35.5095352,131.687286 35.7287443,131.952074 C35.9479534,132.216862 36.0420301,132.507373 36.0109773,132.823617 C35.9799245,133.139861 35.8320064,133.407584 35.5672186,133.626793 C35.3024307,133.846002 35.0131795,133.940197 34.6994565,133.909382 C34.3857334,133.878567 34.1192713,133.730767 33.9000622,133.465979 C33.6808531,133.201191 33.5853973,132.911822 33.6136918,132.597861 C33.6419864,132.283901 33.7885254,132.01732 34.0533133,131.798111 C34.0533133,131.798111 33.7885254,132.01732 34.0533133,131.798111 Z M28.5779275,130.785132 L27.8810934,129.752092 L29.7572244,125.75249 L25.3460593,125.993963 L24.6462217,124.95647 L30.2182868,124.793599 L32.8543203,123.015471 L33.4520357,123.90157 L30.8160022,125.679698 L28.5779275,130.785132 Z M22.1523442,117.023854 C22.5274557,116.23636 23.1968668,115.589562 24.1605975,115.083442 C25.2035824,114.5357 26.2096246,114.34507 27.1787543,114.511546 C28.3166315,114.706692 29.1877309,115.37964 29.7920787,116.530411 C30.3564695,117.605097 30.4450973,118.636397 30.0579647,119.62434 C29.6612312,120.532391 28.9397977,121.261109 27.8936426,121.810516 C26.9489329,122.306647 26.017354,122.496593 25.0988779,122.380361 C23.9202672,122.230874 23.0213096,121.566489 22.401978,120.387187 C21.7543436,119.153992 21.6711331,118.032892 22.1523442,117.023854 C22.1523442,117.023854 21.6711331,118.032892 22.1523442,117.023854 Z M27.0391334,115.522179 C26.2459347,115.463512 25.4610017,115.638123 24.6843109,116.046016 C23.8632376,116.477218 23.315061,117.039113 23.0397645,117.73172 C22.764468,118.424327 22.8224411,119.143115 23.2136855,119.888104 C23.5932759,120.610902 24.1509989,121.07027 24.8868712,121.266222 C25.6227436,121.462174 26.4741175,121.306259 27.4410184,120.798474 C28.2145391,120.392246 28.7639869,119.853949 29.0893785,119.183568 C29.41477,118.513187 29.3468823,117.738939 28.8857133,116.860803 C28.4478525,116.027049 27.8323321,115.580846 27.0391334,115.522179 C27.0391334,115.522179 27.8323321,115.580846 27.0391334,115.522179 Z M20.027831,113.553211 L24.6001735,111.856639 C25.137309,111.657335 25.5464271,111.390954 25.8275401,111.057489 C26.2538123,110.559403 26.3355308,109.956195 26.0726979,109.247847 C25.7575475,108.398502 25.2529138,107.928838 24.5587817,107.83884 C24.1821776,107.791434 23.7269932,107.866759 23.1932149,108.064818 L18.6208723,109.761389 L18.2434412,108.744194 L22.3978273,107.202706 C23.3076004,106.865133 24.0530102,106.727951 24.634079,106.791153 C25.6939843,106.90966 26.455617,107.593324 26.9190002,108.842164 C27.3823833,110.091003 27.250419,111.104327 26.5231032,111.882165 C26.1238999,112.309098 25.4694214,112.691345 24.5596483,113.028917 L20.4052622,114.570406 L20.027831,113.553211 Z M16.51203,97.7614883 C16.7659489,96.9129385 17.3821675,96.3037823 18.3607044,95.9340014 L18.563423,96.9725062 C18.0222988,97.2094748 17.6613476,97.5517299 17.4805585,97.9992816 C17.2997695,98.4468333 17.2683734,98.9728411 17.3863693,99.5773207 C17.5263179,100.294262 17.9129893,100.845374 18.5463952,101.230673 C19.179801,101.615973 20.0289253,101.704689 21.0937935,101.496824 C22.0145706,101.317086 22.7245629,100.968718 23.2237918,100.45171 C23.7230207,99.9347009 23.8834498,99.2193332 23.7050839,98.305585 C23.5685654,97.6062161 23.2525904,97.0668419 22.7571493,96.6874462 C22.2617083,96.3080505 21.5596096,96.2015795 20.6508321,96.3680301 L21.1241853,98.7929653 L20.2543716,98.962755 L19.590648,95.5625742 L23.7341242,94.7537575 L23.8658399,95.4285221 L22.9189012,95.8760453 C23.3782897,96.1548528 23.7102939,96.4165654 23.9149235,96.6611909 C24.2648593,97.0708138 24.5091118,97.6305729 24.6476884,98.340485 C24.8267403,99.2577477 24.6837863,100.10469 24.2188222,100.881338 C23.6144006,101.747231 22.662037,102.307082 21.3617029,102.560911 C20.0648833,102.814053 18.9648163,102.663961 18.061469,102.110631 C17.2001261,101.585585 16.6658733,100.792397 16.4586944,99.7310428 C16.3166877,99.0035586 16.3344661,98.347047 16.51203,97.7614883 C16.51203,97.7614883 16.3344661,98.347047 16.51203,97.7614883 Z M16.1969326,93.6001961 L15.8163843,87.8603559 L16.7810633,87.7963982 L17.0926794,92.4965288 L19.4829397,92.3380558 L19.1947747,87.9916409 L20.1058604,87.9312364 L20.3940254,92.2776513 L23.0629707,92.1007017 L22.7460248,87.3201812 L23.6839071,87.2580001 L24.0697853,93.0782302 L16.1969326,93.6001961 Z M16.4403359,79.8999979 L17.3794387,79.9396936 L17.2671564,82.596013 L24.2111509,82.8895349 L24.1653307,83.9735278 L17.2213362,83.680006 L17.1090538,86.3363254 L16.169951,86.2966296 L16.4403359,79.8999979 Z M17.4914713,75.2540596 L18.0719411,72.1114178 C18.2690091,71.0444987 18.8003701,70.2869485 19.6660399,69.8387444 C20.4460578,69.4402635 21.3695124,69.3395585 22.4364315,69.5366266 C23.2603887,69.6888177 23.9764914,69.9813029 24.5847611,70.4140908 C25.6600265,71.1771046 26.0747293,72.2240997 25.828882,73.5551076 L25.2503634,76.6871859 L17.4914713,75.2540596 Z M24.8939123,73.5899656 C24.9596017,73.2343259 24.9766113,72.935243 24.9449418,72.6927078 C24.8830608,72.2588851 24.6807619,71.8755991 24.3380392,71.5428382 C24.0630268,71.2772036 23.6892589,71.0534122 23.2167243,70.8714572 C22.9342218,70.7646571 22.6679725,70.6881694 22.4179683,70.6419917 C21.4566849,70.4644353 20.6749218,70.5175762 20.0726556,70.801416 C19.4703894,71.0852557 19.09089,71.6514698 18.9341462,72.5000754 L18.5897666,74.3645335 L24.5475816,75.4649872 L24.8939123,73.5899656 Z M22.6779613,60.9617031 C23.4998347,60.6695053 24.4305462,60.6848169 25.4701236,61.0076383 C26.5951925,61.3570075 27.4417878,61.9329737 28.0099349,62.7355543 C28.6772336,63.6776577 28.8181438,64.7693618 28.4326696,66.0106993 C28.0726813,67.1699648 27.4066894,67.9623588 26.434674,68.387905 C25.512316,68.7501335 24.4869081,68.7560321 23.3584195,68.405601 C22.3393601,68.0891511 21.5459396,67.5653162 20.9781342,66.8340808 C20.2497493,65.8955047 20.0830751,64.790176 20.4781065,63.5180616 C20.8911905,62.1878129 21.6244681,61.3357019 22.6779613,60.9617031 C22.6779613,60.9617031 21.6244681,61.3357019 22.6779613,60.9617031 Z M27.1970317,63.352046 C26.6772,62.7500651 25.9983857,62.3189969 25.1605684,62.0588284 C24.2748758,61.783793 23.4899434,61.7940663 22.8057476,62.0896484 C22.1215518,62.3852305 21.6546861,62.9348236 21.4051367,63.7384443 C21.1630207,64.5181274 21.2330925,65.2372684 21.6153543,65.8958891 C21.9976161,66.5545098 22.7102348,67.0457545 23.7532319,67.3696378 C24.5876295,67.6287444 25.3567866,67.6360686 26.0607263,67.3916106 C26.764666,67.1471526 27.2637032,66.5513093 27.5578529,65.6040628 C27.8371359,64.7046916 27.7168633,63.9540268 27.1970317,63.352046 C27.1970317,63.352046 27.7168633,63.9540268 27.1970317,63.352046 Z M23.3662773,57.5736533 L29.8211813,58.8943852 L24.7286703,54.5998845 L25.2118836,53.5451488 L31.789828,54.5973137 L26.5742766,50.57138 L27.0619641,49.5068782 L33.3716236,54.6780278 L32.90407,55.6985823 L26.198156,54.6291453 L31.3828429,59.0190466 L30.9152893,60.0396011 L22.883064,58.628389 L23.3662773,57.5736533 Z M28.8331278,48.0971847 L29.5306547,47.0452233 L37.0600123,47.2558689 L31.7330589,43.7237112 L32.2940487,42.8776656 L38.8699265,47.237951 L38.2080179,48.2361953 L30.6504865,48.0777587 L35.9729635,51.6069481 L35.4090056,52.4574701 L28.8331278,48.0971847 Z M40.8471692,39.7104466 C41.0994058,39.9439887 41.2322644,40.2194949 41.2457491,40.5369735 C41.2592337,40.8544521 41.1492066,41.1393054 40.9156644,41.391542 C40.6821223,41.6437787 40.4065674,41.7753723 40.0889915,41.7863268 C39.7714155,41.7972813 39.4865135,41.6859892 39.2342769,41.4524471 C38.9820402,41.2189049 38.8504953,40.944615 38.8396382,40.6295692 C38.828781,40.3145233 38.9401218,40.0308864 39.1736639,39.7786497 C39.4072061,39.5264131 39.6814473,39.3936032 39.9963958,39.3802159 C40.3113442,39.3668286 40.5949325,39.4769044 40.8471692,39.7104466 C40.8471692,39.7104466 40.5949325,39.4769044 40.8471692,39.7104466 Z M40.8471692,39.7104466" id="Star-1" fill="#4A4A4A" sketch:type="MSShapeGroup"></path>
    </g>
</svg>