<?xml version="1.0" encoding="UTF-8" standalone="no"?>
<svg width="11px" height="16px" viewBox="0 0 11 16" version="1.1" xmlns="http://www.w3.org/2000/svg" xmlns:xlink="http://www.w3.org/1999/xlink" xmlns:sketch="http://www.bohemiancoding.com/sketch/ns">
    <title>tumblr</title>
    <description>Created with Sketch (http://www.bohemiancoding.com/sketch)</description>
    <defs></defs>
    <g id="Page 1" stroke="none" stroke-width="1" fill="none" fill-rule="evenodd">
        <g id="tumblr" transform="translate(-6.000000, -4.000000)" fill="#000000">
            <path d="M16.609375,19.127 C15.917375,19.449 15.288375,19.676 14.726375,19.806 C14.164375,19.935 13.554375,20 12.903375,20 C12.161375,20 11.504375,19.907 10.933375,19.723 C10.363375,19.537 9.876375,19.275 9.473375,18.934 C9.071375,18.591 9.014375,18.344 8.859375,17.958 C8.703375,17.573 8.609375,16.731 8.609375,16 L8.609375,11 L6.609375,11 L6.609375,8 C9.609375,8 9.609375,5 9.609375,4 L12.609375,4 L12.609375,8.045 L15.609375,8 L15.609375,11 L12.609375,11 L12.609375,15 C12.609375,15.928 12.500375,16.625 12.924375,17.076 C13.211375,17.381 13.695375,17.394 14.157375,17.394 C14.979375,17.394 15.796375,17.13 16.608375,16.603 L16.608375,19.127 L16.609375,19.127 Z M16.609375,19.127"></path>
        </g>
    </g>
</svg>