<?xml version="1.0" encoding="UTF-8" standalone="no"?>
<svg width="17px" height="14px" viewBox="0 0 17 14" version="1.1" xmlns="http://www.w3.org/2000/svg" xmlns:xlink="http://www.w3.org/1999/xlink" xmlns:sketch="http://www.bohemiancoding.com/sketch/ns">
    <title>twitter--light</title>
    <description>Created with Sketch (http://www.bohemiancoding.com/sketch)</description>
    <defs></defs>
    <g id="Page 1" stroke="none" stroke-width="1" fill="none" fill-rule="evenodd">
        <g id="twitter--light" transform="translate(-18.000000, -7.000000)" fill="#FFFFFF">
            <path d="M34.604375,8.6718125 C34.015375,8.9338125 33.383375,9.1098125 32.719375,9.1898125 C33.397375,8.7838125 33.916375,8.1408125 34.162375,7.3738125 C33.527375,7.7508125 32.824375,8.0238125 32.077375,8.1708125 C31.479375,7.5308125 30.625375,7.1328125 29.682375,7.1328125 C27.868375,7.1328125 26.399375,8.6038125 26.399375,10.4158125 C26.399375,10.6738125 26.428375,10.9238125 26.484375,11.1638125 C23.756375,11.0268125 21.337375,9.7208125 19.717375,7.7338125 C19.436375,8.2188125 19.274375,8.7828125 19.274375,9.3848125 C19.274375,10.5238125 20.032375,11.5278125 20.913375,12.1168125 C20.374375,12.0998125 19.604375,11.9508125 19.604375,11.7048125 L19.604375,11.7478125 C19.604375,13.3378125 20.557375,14.6638125 22.058375,14.9668125 C21.782375,15.0408125 21.404375,15.0818125 21.104375,15.0818125 C20.892375,15.0818125 20.643375,15.0608125 20.441375,15.0208125 C20.859375,16.3258125 22.049375,17.2748125 23.485375,17.3018125 C22.362375,18.1808125 20.935375,18.7058125 19.398375,18.7058125 C19.132375,18.7058125 18.866375,18.6898125 18.609375,18.6608125 C20.062375,19.5908125 21.784375,20.1358125 23.638375,20.1358125 C29.677375,20.1358125 32.976375,15.1338125 32.976375,10.7958125 C32.976375,10.6528125 32.972375,10.5108125 32.965375,10.3698125 C33.608375,9.9078125 34.164375,9.3298125 34.604375,8.6718125 L34.604375,8.6718125 Z M34.604375,8.6718125" id="twitter"></path>
        </g>
    </g>
</svg>