<?xml version="1.0" encoding="UTF-8" standalone="no"?>
<svg width="168px" height="168px" viewBox="0 0 168 168" version="1.1" xmlns="http://www.w3.org/2000/svg" xmlns:xlink="http://www.w3.org/1999/xlink" xmlns:sketch="http://www.bohemiancoding.com/sketch/ns">
    <title>Complex</title>
    <description>Created with Sketch (http://www.bohemiancoding.com/sketch)</description>
    <defs></defs>
    <g id="Page-1" stroke="none" stroke-width="1" fill="none" fill-rule="evenodd" sketch:type="MSPage">
        <g id="Complex" sketch:type="MSArtboardGroup" transform="translate(-2.000000, -4.000000)" fill="#FFFFFF">
            <path d="M86,170.32 L80.72564,171.834184 L75.682616,169.670848 L70.259912,170.512192 L65.527856,167.733808 L60.042488,167.888704 L55.695992,164.53912 L50.23448,164.005552 L46.342088,160.13752 L40.990616,158.923552 L37.61348,154.598224 L32.456384,152.723176 L29.648096,148.00876 L24.766688,145.502032 L22.571264,140.472784 L18.042572,137.374024 L16.4949224,132.10924 L12.3902288,128.467336 L11.5146296,123.050176 L7.8987656,118.922416 L7.7090264,113.438224 L4.6390112,108.88996 L5.1381056,103.425256 L2.6623652,98.528056 L3.8424392,93.168856 L2,88 L3.8424392,82.831144 L2.66236688,77.471944 L5.1381224,72.574744 L4.6390112,67.11004 L7.7090264,62.561776 L7.8987824,57.077584 L11.5146296,52.949824 L12.3902456,47.532664 L16.4949224,43.89076 L18.042572,38.625976 L22.571432,35.527216 L24.766688,30.497968 L29.648096,27.99124 L32.456384,23.276824 L37.61348,21.401776 L40.990616,17.076448 L46.342088,15.8624296 L50.23448,11.9945152 L55.695992,11.460796 L60.042656,8.1112456 L65.527856,8.2662256 L70.26008,5.48786512 L75.682616,6.3291184 L80.72564,4.16575233 L86,5.67999832 L91.27436,4.16575502 L96.317384,6.3291184 L101.740088,5.48787184 L106.472144,8.2662424 L111.957512,8.1112624 L116.304008,11.460796 L121.76552,11.994532 L125.657912,15.8624464 L131.009384,17.0764648 L134.38652,21.401776 L139.543616,23.276824 L142.351904,27.99124 L147.233312,30.498136 L149.428736,35.527216 L153.957512,38.626144 L155.505128,43.89076 L159.609704,47.532664 L160.48532,52.949824 L164.101184,57.077584 L164.291024,62.561776 L167.361056,67.11004 L166.861928,72.574744 L169.337576,77.472112 L168.157544,82.831144 L170,88 L168.157544,93.168856 L169.337576,98.528056 L166.861928,103.425256 L167.361056,108.88996 L164.291024,113.438224 L164.101184,118.922416 L160.48532,123.050176 L159.609704,128.467336 L155.505128,132.10924 L153.957344,137.374024 L149.428568,140.472784 L147.233312,145.502032 L142.351904,148.00876 L139.543616,152.723176 L134.38652,154.598224 L131.009384,158.923552 L125.657912,160.13752 L121.765352,164.005552 L116.304008,164.539288 L111.957344,167.888704 L106.472144,167.733808 L101.73992,170.512192 L96.317384,169.670848 L91.27436,171.834184 L86,170.32 Z M86,165 C128.525928,165 163,130.525928 163,88 C163,45.4740722 128.525928,11 86,11 C43.4740722,11 9,45.4740722 9,88 C9,130.525928 43.4740722,165 86,165 Z M86,165" id="Spined-Ring" sketch:type="MSShapeGroup"></path>
            <path d="M34.125726,140.69673 L31.8263911,138.477225 C31.0457727,137.723709 30.7076843,136.862359 30.8121158,135.893151 C30.9106967,135.022808 31.336739,134.197339 32.0902553,133.416721 C32.6721788,132.813867 33.3114957,132.378408 34.0082251,132.110331 C35.2381601,131.635309 36.3400315,131.86781 37.3138723,132.80784 L39.6054783,135.019885 L34.125726,140.69673 Z M36.8265764,133.606543 C36.5663702,133.355371 36.3264291,133.176016 36.1067458,133.068473 C35.7109079,132.880473 35.2796521,132.837445 34.8129654,132.939388 C34.4396339,133.021954 34.0466459,133.209958 33.6339896,133.503405 C33.3889364,133.679935 33.1781296,133.859656 33.0015631,134.042573 C32.3226523,134.745903 31.9352096,135.426979 31.8392232,136.085824 C31.7432368,136.744669 32.0056837,137.373747 32.6265716,137.973079 L33.9907148,139.28986 L38.1984484,134.930785 L36.8265764,133.606543 Z M31.9226655,131.80375 L30.2175772,129.715054 L30.9873156,129.086685 L32.6924039,131.17538 L31.9226655,131.80375 Z M25.9732628,131.126283 L23.9736374,128.389879 C23.4285704,127.643978 23.2635132,126.950798 23.4784609,126.310319 C23.6063397,125.933037 23.8422955,125.618697 24.1863353,125.36729 C24.5881969,125.07363 25.0012252,124.946987 25.4254326,124.987356 C25.6479331,125.006595 25.8968933,125.086324 26.1723209,125.226544 C26.0579069,124.809006 26.0196054,124.46225 26.0574151,124.186266 C26.1258062,123.697232 26.4042947,123.274201 26.8928891,122.917161 C27.3034239,122.617163 27.7689356,122.474342 28.289438,122.488693 C29.0676898,122.50983 29.7631413,122.9396 30.3758136,123.778016 L32.3437492,126.471054 L25.9732628,131.126283 Z M26.9011793,126.742853 C26.6349837,126.378576 26.3773526,126.132224 26.128278,126.003791 C25.7368751,125.801968 25.3344667,125.85211 24.9210407,126.154221 C24.5047237,126.458445 24.347881,126.832496 24.450508,127.276387 C24.5089932,127.526353 24.6755564,127.839253 24.9502026,128.215095 L26.07519,129.754593 L28.0483495,128.312708 L26.9011793,126.742853 Z M29.6290822,124.303733 C29.2424649,123.774663 28.813541,123.509351 28.3422977,123.507788 C28.0450742,123.507673 27.7591399,123.607965 27.4844862,123.808668 C27.0219117,124.146695 26.8578407,124.583681 26.9922682,125.119642 C27.0632068,125.404857 27.230715,125.728153 27.4947979,126.089539 L28.7465444,127.802502 L30.988574,126.16414 L29.6290822,124.303733 Z M21.6528084,124.31373 L21.1201586,123.387058 L27.1458494,119.923496 L25.1544348,116.458957 L25.9693467,115.990546 L28.4934111,120.381756 L21.6528084,124.31373 Z M16.9648068,111.96282 C17.3807627,111.196116 18.0832221,110.585371 19.0722059,110.130568 C20.1425206,109.638363 21.1571867,109.500837 22.1162347,109.717986 C23.2422914,109.972628 24.0768427,110.690401 24.6199135,111.871326 C25.1270787,112.974173 25.1614165,114.008704 24.7229277,114.97495 C24.2790476,115.860909 23.5203349,116.550729 22.4467669,117.04443 C21.4773025,117.490256 20.5370328,117.631011 19.6259294,117.466697 C18.4567972,117.255511 17.5939764,116.544827 17.0374411,115.334623 C16.4554727,114.069114 16.4312615,112.945191 16.9648068,111.96282 C16.9648068,111.96282 16.4312615,112.945191 16.9648068,111.96282 Z M21.9237243,110.719891 C21.1347019,110.619644 20.3416811,110.752785 19.5446383,111.119321 C18.7020501,111.506801 18.1251172,112.039129 17.8138224,112.71632 C17.5025276,113.393512 17.5226672,114.114352 17.874242,114.878862 C18.2153443,115.6206 18.7481697,116.108628 19.4727342,116.34296 C20.1972987,116.577292 21.0556866,116.466311 22.0479236,116.010011 C22.8417133,115.644972 23.4186761,115.136278 23.7788294,114.483912 C24.1389827,113.831547 24.1118551,113.054803 23.6974458,112.153657 C23.3039813,111.298055 22.7127467,110.820138 21.9237243,110.719891 C21.9237243,110.719891 22.7127467,110.820138 21.9237243,110.719891 Z M15.3784416,109.531356 L15.0664415,108.537172 L18.7357012,107.385666 L13.9149357,104.867912 L13.4726674,103.458629 L17.4891085,105.637716 L20.9734592,101.008993 L21.3899955,102.336281 L18.4397575,106.155638 L19.9707453,106.998078 L22.5945735,106.174655 L22.9065737,107.16884 L15.3784416,109.531356 Z M18.1274953,97.0131718 C18.5661112,96.920521 18.9093301,96.7609982 19.1571621,96.5345986 C19.6201478,96.1049259 19.7837629,95.4476825 19.6480122,94.5628485 C19.5871958,94.1664429 19.4751818,93.814124 19.3119668,93.5058812 C18.9958735,92.9095456 18.5546866,92.6548219 17.9883929,92.7417024 C17.5636726,92.8068627 17.2814262,92.9860119 17.1416453,93.2791552 C17.0059468,93.5752948 16.9166043,94.0200898 16.8736154,94.6135533 L16.796797,95.7066922 C16.7469518,96.4207548 16.6502298,96.935511 16.5066283,97.2509764 C16.2570298,97.7964397 15.8083881,98.1188512 15.1606896,98.2182208 C14.4599012,98.3257353 13.8475726,98.1715311 13.3236855,97.7556035 C12.7997985,97.3396759 12.4697131,96.6875352 12.3334194,95.7991619 C12.2079857,94.9815754 12.298738,94.2567192 12.6056789,93.6245717 C12.9126199,92.9924241 13.4996502,92.6098382 14.3667875,92.4768025 L14.519099,93.4695812 C14.1096024,93.5867456 13.8066732,93.7491437 13.6103022,93.9567803 C13.2526918,94.3413052 13.1330758,94.9193466 13.2514504,95.6909217 C13.3470189,96.3138448 13.5466612,96.7414733 13.8503833,96.9738199 C14.1541053,97.2061666 14.479389,97.2957314 14.8262439,97.2425171 C15.2084921,97.1838728 15.4636607,96.9817085 15.5917572,96.6360181 C15.6729788,96.4098212 15.7420603,95.9156072 15.7990038,95.1533612 L15.8807387,94.0214304 C15.9201686,93.4756073 16.0223009,93.0433406 16.1871385,92.7246172 C16.4756696,92.1731809 16.9667828,91.8442534 17.6604926,91.7378248 C18.5240905,91.6053321 19.1898861,91.8246909 19.6578994,92.3959077 C20.1259126,92.9671244 20.4237176,93.6685943 20.5513233,94.5003382 C20.7001061,95.4701161 20.5688287,96.2673019 20.1574871,96.8919194 C19.7496849,97.5159938 19.1237977,97.8873338 18.2798068,98.0059505 C18.2798068,98.0059505 19.1237977,97.8873338 18.2798068,98.0059505 L18.1274953,97.0131718 Z M12,84.7677001 L12.939028,84.7262734 L13.0562066,87.3823813 L19.9996483,87.07606 L20.0474666,88.1599666 L13.1040249,88.4662879 L13.2212035,91.1223958 L12.2821754,91.1638226 L12,84.7677001 Z M12.438742,82.008496 L17.3083642,82.2757998 C17.8804225,82.3072013 18.3618265,82.226044 18.7525907,82.0323257 C19.3421162,81.7455197 19.6575795,81.2249236 19.6989902,80.4705216 C19.7486438,79.5659544 19.4731355,78.9340247 18.872457,78.5747137 C18.5459894,78.3810725 18.0985209,78.2686509 17.5300379,78.2374457 L12.6604157,77.9701419 L12.7198819,76.8868119 L17.1443735,77.1296815 C18.1132973,77.1828678 18.8515863,77.354286 19.3592626,77.6439415 C20.2840108,78.1752453 20.7098743,79.1059011 20.6368659,80.4359367 C20.5638574,81.7659723 20.0387863,82.6426363 19.0616369,83.0659548 C18.5253067,83.2983026 17.772691,83.387882 16.8037672,83.3346957 L12.3792757,83.0918261 L12.438742,82.008496 Z M13.5070168,74.26762 L13.6928766,73.2041491 L21.4652088,74.5624974 L21.279349,75.6259683 L13.5070168,74.26762 Z M14.1442835,71.2677613 L14.8331857,68.1470953 C15.0670663,67.087637 15.6243309,66.3489334 16.5049962,65.9309624 C17.2983398,65.55972 18.2247269,65.4910401 19.2841852,65.7249207 C20.1023807,65.9055414 20.8079301,66.2226386 21.4008546,66.676222 C22.4490645,67.475998 22.8272778,68.5367204 22.535506,69.8584208 L21.8489194,72.9685972 L14.1442835,71.2677613 Z M21.59989,69.8608947 C21.6778502,69.5077419 21.7052022,69.209427 21.6819468,68.9659409 C21.6351193,68.5302362 21.4462089,68.1401775 21.1152098,67.7957529 C20.8495569,67.5207581 20.4837594,67.2841631 20.0178062,67.0859607 C19.7391698,66.969446 19.4757276,66.8837881 19.2274717,66.8289844 C18.2729103,66.6182603 17.4897762,66.6443092 16.878046,66.9071318 C16.2663158,67.1699544 15.8674448,67.7226932 15.681421,68.5653646 L15.2727109,70.416785 L21.1888643,71.7228046 L21.59989,69.8608947 Z M19.8221018,57.1808454 C20.6536927,56.9175735 21.583299,56.9654297 22.6109488,57.3244154 C23.7231093,57.7129229 24.5490407,58.3181485 25.0887678,59.1401103 C25.7227058,60.1049777 25.8253446,61.2009425 25.3966874,62.4280375 C24.9963711,63.5740022 24.3030708,64.3426166 23.3167656,64.7339036 C22.3823022,65.0636487 21.3573154,65.0336775 20.2417745,64.6439891 C19.2344073,64.2920886 18.4597947,63.7408225 17.9179136,62.990174 C17.2228035,62.0266952 17.0948929,60.916213 17.534178,59.6586942 C17.993538,58.3437081 18.7561716,57.5177668 19.8221018,57.1808454 C19.8221018,57.1808454 18.7561716,57.5177668 19.8221018,57.1808454 Z M24.2547987,59.7277915 C23.7563409,59.1079966 23.0930196,58.6534489 22.264815,58.3641347 C21.3892845,58.0582884 20.604473,58.0411004 19.9103571,58.3125701 C19.2162413,58.5840399 18.7304379,59.1169669 18.4529325,59.9113673 C18.1836933,60.6821046 18.2285684,61.4032566 18.5875594,62.0748448 C18.9465504,62.7464331 19.6415505,63.2623028 20.6725808,63.6224693 C21.4974049,63.9106026 22.2658352,63.9448255 22.9778947,63.7251392 C23.6899541,63.5054528 24.2095271,62.9274292 24.5366292,61.9910509 C24.847199,61.1019987 24.7532565,60.3475864 24.2547987,59.7277915 C24.2547987,59.7277915 24.7532565,60.3475864 24.2547987,59.7277915 Z M25.4661264,56.0932334 C25.8776265,56.2710978 26.249918,56.3392573 26.5830121,56.2977139 C27.2091664,56.2146161 27.7225162,55.7727894 28.1230769,54.9722206 C28.302528,54.6135657 28.4147187,54.261303 28.4596522,53.9154219 C28.5463104,53.2460779 28.3334606,52.7832333 27.8210966,52.5268745 C27.4368235,52.3346054 27.1029499,52.3176992 26.8194656,52.4761555 C26.5375814,52.6394162 26.2076205,52.9507848 25.829573,53.4102704 L25.1351534,54.257994 C24.6818159,54.811939 24.3054017,55.1761388 24.0058994,55.3506042 C23.4869761,55.6515164 22.9345145,55.6553673 22.3484981,55.3621568 C21.7144476,55.0449128 21.3038377,54.5651996 21.1166559,53.9230031 C20.9294742,53.2808065 21.0369632,52.5578335 21.4391262,51.7540624 C21.8092443,51.0143368 22.3022039,50.4752234 22.9180198,50.136706 C23.5338357,49.7981886 24.2340119,49.8252042 25.0185693,50.2177537 L24.5691425,51.1159874 C24.1672404,50.9749569 23.8261678,50.9324274 23.5459145,50.9883976 C23.0318488,51.0955467 22.6001779,51.4981633 22.250889,52.1962593 C21.9688942,52.7598598 21.884696,53.2242236 21.9982917,53.5893648 C22.1118874,53.954506 22.3255935,54.2155825 22.6394165,54.3726023 C22.9852622,54.5456445 23.310338,54.5281196 23.6146536,54.3200269 C23.8116588,54.1823645 24.1536441,53.8189559 24.6406198,53.2297902 L25.3614696,52.3532497 C25.7090812,51.9305869 26.0422399,51.6368339 26.3609558,51.4719819 C26.9151042,51.1886944 27.5059925,51.2040702 28.1336384,51.5181097 C28.9149936,51.909057 29.3315854,52.4728418 29.3834262,53.2094812 C29.435267,53.9461206 29.2729263,54.6906965 28.8963993,55.4432312 C28.4573848,56.3206546 27.8895529,56.8953771 27.1928867,57.1674158 C26.4994228,57.4410567 25.7740343,57.3824078 25.0166995,56.9914671 C25.0166995,56.9914671 25.7740343,57.3824078 25.0166995,56.9914671 L25.4661264,56.0932334 Z M30.8555958,45.0886025 C31.1362338,45.287116 31.3040143,45.5428595 31.3589425,45.855841 C31.4138707,46.1688224 31.3420791,46.4656277 31.1435657,46.7462656 C30.9450523,47.0269036 30.6890948,47.1934364 30.3756857,47.245869 C30.0622765,47.2983016 29.7652574,47.2252622 29.4846194,47.0267488 C29.2039815,46.8282354 29.0376625,46.5735257 28.9856577,46.2626121 C28.9336528,45.9516985 29.006906,45.6559272 29.2054194,45.3752892 C29.4039328,45.0946513 29.6584287,44.9270846 29.9689145,44.8725842 C30.2794004,44.8180837 30.5749579,44.8900891 30.8555958,45.0886025 C30.8555958,45.0886025 30.5749579,44.8900891 30.8555958,45.0886025 Z M31.240276,38.5672348 L37.0649158,41.6467949 L33.3826469,36.0954617 L34.1425026,35.2187737 L40.1606242,38.075103 L36.2848735,32.7470006 L37.0517649,31.8621951 L41.6561648,38.5965913 L40.9209341,39.4448681 L34.7848366,36.5360394 L38.5287958,42.2048118 L37.7935651,43.0530886 L30.4804203,39.4439228 L31.240276,38.5672348 Z M39.2102188,30.9447183 L43.6041179,27.2320058 L44.2281031,27.9704762 L40.6301111,31.0106712 L42.176208,32.8404368 L45.5034275,30.0290364 L46.092747,30.7264807 L42.7655274,33.5378811 L44.4918867,35.5809826 L48.1514179,32.4887889 L48.7580703,33.2067462 L44.3026321,36.9714574 L39.2102188,30.9447183 Z M48.3503362,24.5214228 L49.6571872,23.7243208 L55.0659308,28.2391698 L53.5135443,21.3721705 L54.8066391,20.583459 L58.9152107,27.3194739 L58.0485621,27.8480784 L55.6236937,23.8724998 C55.5397878,23.7349359 55.403936,23.50533 55.2161341,23.1836752 C55.0283322,22.8620205 54.823492,22.5193081 54.6016076,22.1555279 L56.1456035,29.0087709 L55.2422713,29.5597502 L49.8419183,25.0586574 L49.9677766,25.2650023 C50.0684636,25.4300791 50.2256438,25.679181 50.4393219,26.0123155 C50.6529999,26.34545 50.8083156,26.591495 50.9052735,26.7504578 L53.3301418,30.7260363 L52.4589078,31.2574377 L48.3503362,24.5214228 Z M59.4806926,19.0418773 L60.5886372,18.5592578 L66.3642037,24.6496332 L65.2907285,25.1172378 L63.6132338,23.2701919 L60.7522746,24.5164226 L60.9131162,27.024121 L59.9085798,27.461696 L59.4806926,19.0418773 Z M62.9505991,22.6097502 L60.4604138,19.8922751 L60.6854679,23.5964389 L62.9505991,22.6097502 Z M64.9475339,17.2360183 L65.9423004,16.9258776 L67.0869437,20.5972839 L69.6137068,15.7812343 L71.0238139,15.3416017 L68.8372211,19.3539615 L73.4594213,22.8469606 L72.1313567,23.2610145 L68.317523,20.3036405 L67.4722217,21.8330505 L68.2907376,24.4584137 L67.2959711,24.7685545 L64.9475339,17.2360183 Z M72.8539579,15.3316585 L78.4983214,14.2218197 L78.6848489,15.1704522 L74.0629004,16.0792558 L74.5250742,18.4297564 L78.7991908,17.5893463 L78.9753557,18.485277 L74.7012391,19.3256871 L75.2172986,21.9502371 L79.9182998,21.0258896 L80.099646,21.9481712 L74.3762298,23.073554 L72.8539579,15.3316585 Z M83.9400264,14.147705 L87.326139,14.0040123 C88.2491411,13.9648438 88.9172971,14.2124516 89.3306272,14.7468429 C89.5734042,15.0626816 89.7038237,15.4334584 89.7218898,15.8591841 C89.7429922,16.3564604 89.6189887,16.770289 89.3498756,17.1006824 C89.2103323,17.2750506 89.0057893,17.437839 88.7362406,17.5890523 C89.1470292,17.7257308 89.4566887,17.8864101 89.6652283,18.0710949 C90.0339778,18.3995078 90.231178,18.8660083 90.2568348,19.4706104 C90.2783926,19.9786192 90.1387031,20.4450803 89.8377619,20.8700075 C89.3880631,21.5055337 88.6444834,21.845305 87.6070004,21.8893315 L84.2745504,22.030747 L83.9400264,14.147705 Z M87.070451,17.3533137 C87.5212195,17.334185 87.8691552,17.2567015 88.1142685,17.1208609 C88.4994467,16.9073972 88.6811782,16.5448776 88.6594686,16.0332912 C88.6376071,15.5181272 88.413599,15.1799934 87.9874375,15.0188794 C87.7470699,14.9287285 87.3943521,14.8935216 86.9292735,14.9132576 L85.0242498,14.994099 L85.1278634,17.4357492 L87.070451,17.3533137 Z M87.5843864,20.9763834 C88.2390739,20.9486012 88.6978881,20.7391834 88.9608428,20.3481239 C89.12597,20.1009906 89.2013212,19.8074958 89.1868987,19.4676307 C89.1626082,18.8952264 88.8902712,18.5161364 88.3698795,18.3303494 C88.0932812,18.2309841 87.731392,18.1907905 87.284201,18.2097674 L85.1645267,18.2997177 L85.2822591,21.0740763 L87.5843864,20.9763834 Z M92.1145797,14.3393393 L97.8544507,14.7194209 L97.7905715,15.6841051 L93.0904156,15.3728712 L92.932137,17.7631443 L97.2785754,18.0509558 L97.218245,18.9620464 L92.8718066,18.6742349 L92.6950741,21.3431946 L97.4756203,21.6597518 L97.4135155,22.5976392 L91.593254,22.2122344 L92.1145797,14.3393393 Z M102.236444,15.7878357 L103.426499,15.998149 L104.872495,24.2660953 L103.719464,24.0623251 L103.342662,21.5958321 L100.269675,21.0527564 L99.0174236,23.2313538 L97.9384403,23.0406698 L102.236444,15.7878357 Z M103.155583,20.67917 L102.582743,17.0380783 L100.722581,20.2491961 L103.155583,20.67917 Z M112.452117,18.5918088 L112.199647,19.4972088 L109.638659,18.7830816 L107.771829,25.4778678 L106.726739,25.1864462 L108.593569,18.49166 L106.03258,17.7775328 L106.285049,16.8721328 L112.452117,18.5918088 Z M112.588505,24.6929152 C112.449076,25.1189758 112.4153,25.4959451 112.487176,25.8238344 C112.627271,26.4397464 113.114257,26.9104734 113.948147,27.2360294 C114.32173,27.3818786 114.682787,27.4613353 115.03133,27.474402 C115.705797,27.4993932 116.147202,27.2450478 116.355558,26.7113582 C116.511825,26.3110909 116.498082,25.9770721 116.314328,25.7092918 C116.125937,25.4435447 115.785657,25.1434877 115.293479,24.8091116 L114.385719,24.1952504 C113.792582,23.794552 113.395439,23.4530755 113.194276,23.1708107 C112.847103,22.6816278 112.79267,22.1318408 113.030977,21.5214333 C113.288818,20.8609924 113.728908,20.408173 114.351263,20.1629616 C114.973617,19.9177502 115.703396,19.958573 116.540621,20.2854313 C117.311136,20.5862451 117.893132,21.0277575 118.286627,21.6099816 C118.680122,22.1922058 118.717346,22.8919135 118.398301,23.7091258 L117.462681,23.3438537 C117.56631,22.9307242 117.577423,22.58719 117.496021,22.3132407 C117.342241,21.8111489 116.901781,21.4181664 116.174629,21.1342815 C115.587571,20.9050901 115.117447,20.863775 114.764244,21.0103352 C114.411042,21.1568954 114.170635,21.3936144 114.043017,21.7204993 C113.902377,22.0807398 113.9496,22.4028443 114.18469,22.6868225 C114.339816,22.8703916 114.733019,23.1776564 115.364309,23.6086259 L116.303185,24.246167 C116.755908,24.5536075 117.078939,24.8584622 117.272288,25.1607405 C117.605138,25.6866146 117.643944,26.2764276 117.388708,26.9301974 C117.070965,27.7440741 116.547704,28.21055 115.818908,28.329639 C115.090113,28.448728 114.333798,28.3552625 113.549942,28.0492398 C112.635998,27.6924304 112.011685,27.1796218 111.676985,26.5107986 C111.340982,25.845311 111.332949,25.1175997 111.652885,24.3276431 C111.652885,24.3276431 111.332949,25.1175997 111.652885,24.3276431 L112.588505,24.6929152 Z M124.024187,29.0538173 C123.851854,29.3512502 123.612323,29.5414607 123.305588,29.6244546 C122.998852,29.7074485 122.696773,29.6627792 122.39934,29.4904454 C122.101907,29.3181117 121.91292,29.078255 121.832373,28.7708682 C121.751826,28.4634814 121.797718,28.1610761 121.970052,27.8636432 C122.142386,27.5662104 122.381019,27.3775489 122.685959,27.2976533 C122.990899,27.2177577 123.292081,27.2639761 123.589514,27.4363099 C123.886947,27.6086436 124.076832,27.8469512 124.159174,28.1512397 C124.241516,28.4555283 124.196521,28.7563844 124.024187,29.0538173 C124.024187,29.0538173 124.196521,28.7563844 124.024187,29.0538173 Z M130.557964,28.8545706 L128.015381,34.9328424 L133.212602,30.7656734 L134.154148,31.443503 L131.851311,37.6943703 L136.808786,33.3546059 L137.759051,34.0387116 L131.466603,39.2307922 L130.55557,38.5749294 L132.900071,32.2018381 L127.591443,36.4410214 L126.680409,35.7851585 L129.616418,28.176741 L130.557964,28.8545706 Z M138.875424,36.0979412 L142.974678,40.1336197 L142.296413,40.8225699 L138.939694,37.5179106 L137.259103,39.2249761 L140.363207,42.2809381 L139.722623,42.9316133 L136.618519,39.8756513 L134.741985,41.7817469 L138.156116,45.1429283 L137.496692,45.812741 L133.340026,41.7205403 L138.875424,36.0979412 Z M149.432321,49.0429648 L148.679902,49.6063076 L147.086447,47.4780359 L141.522844,51.6435534 L140.872585,50.7750466 L146.436188,46.6095291 L144.842733,44.4812575 L145.595152,43.9179147 L149.432321,49.0429648 Z M150.045774,50.6213753 L150.603165,51.5459449 L147.811057,53.2292119 L149.9297,56.7434963 L152.721808,55.0602293 L153.279199,55.9847988 L146.522022,60.0584714 L145.96463,59.1339018 L149.124726,57.2287874 L147.006084,53.7145031 L143.845988,55.6196174 L143.288596,54.6950479 L150.045774,50.6213753 Z M154.049248,58.4821751 L155.5526,61.8107706 C155.800212,62.3590126 155.924391,62.8470887 155.92514,63.2750135 C155.923479,64.0890709 155.509842,64.6825367 154.684215,65.0554288 C154.253454,65.2499812 153.860855,65.3202332 153.506407,65.2661869 C153.15196,65.2121407 152.819306,65.0627998 152.508435,64.81816 C152.520971,65.1503935 152.466292,65.4294895 152.344395,65.6554563 C152.222498,65.8814231 151.956385,66.09689 151.546046,66.3018636 L150.597208,66.7716584 C150.327508,66.9052545 150.133869,67.0202138 150.016285,67.1165398 C149.814381,67.2784517 149.714696,67.4492009 149.717228,67.6287924 L149.555693,67.7017492 L149.016255,66.5073708 C149.063519,66.4467336 149.131679,66.3845176 149.220736,66.3207211 C149.309793,66.2569246 149.491695,66.1551242 149.766448,66.015317 L150.939191,65.4149283 C151.398796,65.1798459 151.634852,64.8630321 151.647368,64.4644774 C151.651467,64.2386719 151.563611,63.9267098 151.383798,63.5285816 L150.3823,61.3111496 L147.298454,62.7039609 L146.858503,61.7298572 L154.049248,58.4821751 Z M152.211842,63.1958519 C152.418186,63.6527202 152.672788,63.9728622 152.975657,64.1562875 C153.278525,64.3397127 153.668178,64.3238322 154.144626,64.1086455 C154.656972,63.8772461 154.922134,63.5335352 154.940122,63.0775026 C154.948116,62.8342221 154.876946,62.5461555 154.72661,62.2132943 L153.652156,59.8343275 L151.194869,60.9441549 L152.211842,63.1958519 Z M157.905903,73.0889258 C157.397822,73.7979461 156.624859,74.3165853 155.586991,74.6448589 C154.463771,75.0001287 153.439879,75.0103944 152.515283,74.6756562 C151.429639,74.282945 150.690835,73.4669531 150.29885,72.2276561 C149.932782,71.070296 150.027374,70.0395265 150.582629,69.1353166 C151.133248,68.3114404 151.971862,67.7213363 153.098496,67.3649867 C154.11588,67.0431921 155.066355,67.0204705 155.949949,67.2968209 C157.08374,67.6517703 157.851475,68.4642445 158.253178,69.734268 C158.673239,71.0623301 158.557482,72.1805382 157.905903,73.0889258 C157.905903,73.0889258 158.557482,72.1805382 157.905903,73.0889258 Z M152.830904,73.7054722 C153.601333,73.9030708 154.404756,73.8695893 155.241196,73.6050267 C156.125433,73.3253462 156.764091,72.8689036 157.15719,72.2356851 C157.55029,71.6024666 157.619956,70.8847182 157.366192,70.0824185 C157.119987,69.304017 156.651993,68.7535116 155.962198,68.4308858 C155.272402,68.1082599 154.406876,68.1116237 153.365594,68.4409771 C152.532567,68.7044599 151.896819,69.1374491 151.458328,69.7399577 C151.019837,70.3424662 150.950152,71.1165536 151.249269,72.0622431 C151.533269,72.960136 152.060476,73.5078736 152.830904,73.7054722 C152.830904,73.7054722 152.060476,73.5078736 152.830904,73.7054722 Z M159.27193,76.2012535 L153.223509,78.8140547 L159.857509,79.419407 L160.065202,80.5608211 L154.069667,83.4642601 L160.650782,83.7789746 L160.860398,84.9309573 L152.72657,84.3037141 L152.525608,83.1992903 L158.635952,80.2367455 L151.871759,79.6059497 L151.670796,78.501526 L159.064237,75.0598394 L159.27193,76.2012535 Z M160.202266,90.4256916 L160.139583,93.9754312 C160.127192,94.6771482 159.919401,95.2393167 159.516203,95.6619535 C159.113006,96.0845903 158.553397,96.2895836 157.837359,96.2769395 C157.221567,96.2660655 156.688824,96.0650612 156.239114,95.6739203 C155.789405,95.2827795 155.571571,94.689817 155.585606,93.8950151 L155.629417,91.4139565 L152.294488,91.3550669 L152.313359,90.2863858 L160.202266,90.4256916 Z M159.043886,94.573855 C159.159044,94.3395224 159.220258,94.0165 159.227528,93.6047783 L159.265081,91.4781567 L156.53162,91.429888 L156.494067,93.5565096 C156.485596,94.0362549 156.580755,94.4273964 156.779547,94.7299458 C156.978338,95.0324951 157.335503,95.1883193 157.85105,95.1974231 C158.43104,95.2076648 158.828648,94.9998109 159.043886,94.573855 C159.043886,94.573855 158.828648,94.9998109 159.043886,94.573855 Z M159.39342,99.7146989 L159.255909,100.915346 L151.09127,102.861755 L151.224503,101.698461 L153.663497,101.172275 L154.01858,98.0719374 L151.767822,96.9545705 L151.892498,95.8659837 L159.39342,99.7146989 Z M154.567077,100.929765 L158.166566,100.136432 L154.84821,98.475109 L154.567077,100.929765 Z M158.185705,105.478797 L157.377266,109.040545 C157.244111,109.627188 157.048788,110.091394 156.791291,110.433178 C156.298983,111.081503 155.611111,111.305399 154.727654,111.104874 C154.26672,111.000252 153.911195,110.8195 153.66107,110.562612 C153.410944,110.305724 153.235677,109.98597 153.135262,109.603339 C152.944882,109.875904 152.732936,110.065544 152.499419,110.172265 C152.265901,110.278986 151.923683,110.290351 151.472753,110.206359 L150.432572,110.008815 C150.136873,109.952713 149.913082,109.92762 149.761195,109.933535 C149.502493,109.940908 149.319997,110.016982 149.213699,110.161759 L149.040849,110.122526 L149.330936,108.844487 C149.405209,108.824627 149.4971,108.81611 149.606614,108.818936 C149.716127,108.821762 149.922619,108.850273 150.226095,108.904468 L151.523638,109.132889 C152.032023,109.222579 152.411392,109.112247 152.661755,108.801892 C152.801215,108.624252 152.919291,108.322429 153.015987,107.896414 L153.55455,105.523662 L150.254696,104.774667 L150.491283,103.732332 L158.185705,105.478797 Z M153.87715,108.130433 C153.766188,108.619303 153.776182,109.02822 153.907134,109.357197 C154.038086,109.686174 154.358467,109.908518 154.868288,110.024237 C155.416521,110.148673 155.835328,110.034443 156.124724,109.681541 C156.277829,109.492311 156.394803,109.219612 156.475647,108.863435 L157.053443,106.317834 L154.424035,105.721016 L153.87715,108.130433 Z M153.846048,118.9277 L152.959655,118.614972 L153.844227,116.107748 L147.289989,113.795352 L147.650965,112.772202 L154.205204,115.084598 L155.089775,112.577374 L155.976168,112.890101 L153.846048,118.9277 Z M152.791659,120.491539 L152.332788,121.468756 L145.190846,118.115113 L145.649717,117.137897 L152.791659,120.491539 Z M151.363488,123.265873 L148.690906,128.35978 L147.834787,127.910607 L150.02326,123.739406 L147.901988,122.626454 L145.878212,126.483745 L145.069655,126.059525 L147.093431,122.202234 L144.724835,120.959521 L142.498932,125.202066 L141.666594,124.765369 L144.376607,119.600119 L151.363488,123.265873 Z M142.392737,127.634457 C142.007169,127.405753 141.646554,127.290847 141.310881,127.289735 C140.679244,127.292608 140.11392,127.665634 139.614895,128.408825 C139.391332,128.741775 139.235296,129.076929 139.146783,129.414299 C138.975788,130.067209 139.12811,130.553345 139.603752,130.872722 C139.960484,131.112254 140.289504,131.171441 140.590823,131.050285 C140.891164,130.92416 141.25801,130.657235 141.691371,130.249503 L142.487865,129.496874 C143.007907,129.005013 143.427541,128.691587 143.746782,128.556587 C144.299731,128.324041 144.848205,128.390411 145.39222,128.755697 C145.980828,129.150925 146.327164,129.678918 146.431239,130.339692 C146.535314,131.000466 146.336844,131.703924 145.835822,132.450088 C145.374723,133.136796 144.817265,133.608911 144.163431,133.866448 C143.509597,134.123984 142.818527,134.008231 142.0902,133.519186 L142.650104,132.68533 C143.030831,132.876278 143.363737,132.961796 143.64883,132.941885 C144.172343,132.900915 144.651668,132.556404 145.086818,131.908341 C145.438132,131.385135 145.580644,130.935231 145.514359,130.558617 C145.448075,130.182002 145.26927,129.89589 144.977939,129.700272 C144.65688,129.484693 144.332212,129.460776 144.003925,129.62852 C143.791026,129.740038 143.405642,130.057053 142.84776,130.579575 L142.021389,131.35743 C141.622896,131.732505 141.255116,131.98155 140.918039,132.104574 C140.33239,132.315162 139.748243,132.22484 139.165581,131.833604 C138.440227,131.346555 138.098639,130.734412 138.140806,129.997156 C138.182974,129.259899 138.438596,128.541982 138.90768,127.843382 C139.454612,127.028845 140.09086,126.530922 140.816443,126.349597 C141.539053,126.166277 142.251112,126.31661 142.952641,126.8006 C142.952641,126.8006 142.251112,126.31661 142.952641,126.8006 L142.392737,127.634457 Z M135.658745,137.873132 C135.405394,137.6408 135.271218,137.365933 135.256214,137.048522 C135.241209,136.731112 135.349872,136.445735 135.582204,136.192384 C135.814536,135.939032 136.089458,135.806121 136.406978,135.793646 C136.724497,135.781172 137.009929,135.891099 137.263281,136.123431 C137.516632,136.355763 137.649489,136.62942 137.661854,136.94441 C137.674219,137.259401 137.564237,137.543567 137.331905,137.796919 C137.099573,138.050271 136.82597,138.184392 136.51109,138.199286 C136.196209,138.214181 135.912097,138.105464 135.658745,137.873132 C135.658745,137.873132 135.912097,138.105464 135.658745,137.873132 Z M135.44559,143.398989 L134.51823,144.231306 L130.298565,142.92321 L131.144557,147.259221 L130.2132,148.095126 L129.285365,142.59844 L127.16152,140.232072 L127.956971,139.518145 L130.080816,141.884512 L135.44559,143.398989 Z M122.722501,151.643442 C121.89079,151.380552 121.15783,150.806767 120.523602,149.92207 C119.837216,148.964618 119.509625,147.994492 119.540818,147.011663 C119.577127,145.857744 120.123473,144.90214 121.179871,144.144821 C122.166425,143.437573 123.175638,143.207524 124.207541,143.454668 C125.161639,143.722343 125.982912,144.336352 126.671384,145.296714 C127.293095,146.16395 127.609737,147.060419 127.62132,147.986148 C127.635852,149.174112 127.101831,150.156127 126.019241,150.932222 C124.887178,151.743784 123.788276,151.980855 122.722501,151.643442 C122.722501,151.643442 123.788276,151.980855 122.722501,151.643442 Z M120.561049,147.010532 C120.612366,147.80424 120.893589,148.55758 121.404727,149.270576 C121.945073,150.024315 122.577217,150.489737 123.30118,150.666856 C124.025142,150.843975 124.72906,150.687399 125.412954,150.197124 C126.076477,149.721452 126.454515,149.105692 126.54708,148.349823 C126.639644,147.593955 126.367773,146.772229 125.731458,145.884622 C125.222406,145.174536 124.61346,144.7046 123.9046,144.474799 C123.19574,144.244997 122.438261,144.419044 121.632139,144.996943 C120.866759,145.545634 120.509733,146.216823 120.561049,147.010532 C120.561049,147.010532 120.509733,146.216823 120.561049,147.010532 Z M119.590835,154.219654 L117.279122,149.925395 C117.007554,149.420928 116.68723,149.052514 116.318141,148.820142 C115.765963,148.466734 115.157249,148.469095 114.491983,148.827226 C113.694293,149.256643 113.298813,149.821298 113.30553,150.521208 C113.310583,150.900751 113.448043,151.341173 113.717914,151.842487 L116.029627,156.136746 L115.074296,156.651025 L112.973897,152.749304 C112.513928,151.894862 112.275126,151.175537 112.257483,150.591307 C112.228493,149.525191 112.800432,148.676448 113.97332,148.045052 C115.146207,147.413656 116.168045,147.404427 117.038866,148.017363 C117.516835,148.353787 117.985797,148.94921 118.445766,149.803652 L120.546165,153.705374 L119.590835,154.219654 Z M104.479126,159.870204 C103.603575,159.736336 102.914895,159.210487 102.413067,158.292641 L103.413455,157.947953 C103.723132,158.451013 104.112108,158.761048 104.580397,158.878066 C105.048685,158.995085 105.573968,158.953278 106.156261,158.752646 C106.846888,158.514687 107.339093,158.055369 107.63289,157.374677 C107.926688,156.693984 107.896868,155.840759 107.543429,154.814975 C107.237815,153.927994 106.794411,153.273133 106.213203,152.850374 C105.631996,152.427615 104.901297,152.367877 104.021087,152.671158 C103.347387,152.903285 102.857009,153.290962 102.549938,153.834203 C102.242866,154.377443 102.234727,155.087523 102.525518,155.964462 L104.861451,155.159605 L105.150149,155.997493 L101.874766,157.126043 L100.49951,153.134646 L101.149509,152.910686 L101.72395,153.786464 C101.9364,153.292869 102.149574,152.927798 102.36348,152.69124 C102.720652,152.287912 103.241158,151.968439 103.925014,151.732813 C104.80861,151.428366 105.667192,151.452562 106.500785,151.805404 C107.442088,152.283989 108.128525,153.149572 108.560117,154.402179 C108.990543,155.651401 108.994358,156.761654 108.571562,157.73297 C108.170956,158.658767 107.459465,159.297792 106.437066,159.650065 C105.736283,159.891523 105.083643,159.964902 104.479126,159.870204 C104.479126,159.870204 105.083643,159.964902 104.479126,159.870204 Z M100.425373,160.754035 L94.7939904,161.927966 L94.5966911,160.981515 L99.20801,160.020229 L98.7191464,157.675134 L94.4548595,158.564077 L94.2685214,157.670206 L98.5328083,156.781264 L97.9869472,154.16275 L93.2967574,155.140477 L93.1049387,154.220317 L98.8151922,153.029945 L100.425373,160.754035 Z M86.8523818,162.415261 L86.7609237,161.479779 L89.4069994,161.221084 L88.7307319,154.303868 L89.8105446,154.198299 L90.4868121,161.115515 L93.1328877,160.856819 L93.2243459,161.7923 L86.8523818,162.415261 Z M82.1386053,162.02349 L78.9456807,161.887935 C77.8616908,161.841914 77.0373123,161.421644 76.4725207,160.627112 C75.9689349,159.910442 75.7401557,159.010125 75.7861763,157.926135 C75.821717,157.088994 76.0112485,156.339042 76.3547766,155.676256 C76.9600219,154.504904 77.938782,153.947943 79.2910862,154.005355 L82.4732783,154.140454 L82.1386053,162.02349 Z M79.456274,154.926276 C79.0949441,154.910936 78.7964193,154.935894 78.5606906,155.001149 C78.1397743,155.123054 77.7885235,155.376936 77.5069277,155.762802 C77.2823362,156.07224 77.1129792,156.473617 76.9988518,156.966944 C76.9325826,157.2616 76.8940568,157.535926 76.8832731,157.78993 C76.8418089,158.766595 77.003688,159.533258 77.368915,160.089944 C77.734142,160.646629 78.347838,160.943269 79.2100214,160.979873 L81.1043112,161.060295 L81.3612963,155.007154 L79.456274,154.926276 Z M67.2837873,158.89236 C66.8792811,158.119554 66.7639942,157.195883 66.9379233,156.121321 C67.1261558,154.958391 67.577779,154.039425 68.2928066,153.364398 C69.1320829,152.571642 70.1932611,152.279111 71.4763729,152.486796 C72.6746509,152.68075 73.5525678,153.229107 74.1101497,154.131884 C74.5980791,154.994368 74.7476393,156.008827 74.5588347,157.175292 C74.3883385,158.228646 73.9808791,159.087654 73.3364445,159.752344 C72.5092225,160.605089 71.4381653,160.925039 70.1232407,160.712205 C68.7482255,160.489644 67.8017505,159.883035 67.2837873,158.89236 C67.2837873,158.89236 67.8017505,159.883035 67.2837873,158.89236 Z M69.0171484,154.08287 C68.4939686,154.681943 68.1622971,155.414475 68.022124,156.280487 C67.873941,157.195986 67.9941279,157.97173 68.3826883,158.607744 C68.7712487,159.243758 69.3808521,159.628985 70.2115168,159.763437 C71.0174383,159.893883 71.7196596,159.723709 72.3182018,159.25291 C72.916744,158.78211 73.3032599,158.007673 73.4777611,156.929576 C73.617362,156.067099 73.5168099,155.304507 73.1761017,154.641779 C72.8353936,153.979051 72.1754874,153.568452 71.1963635,153.409971 C70.266726,153.259499 69.5403282,153.483797 69.0171484,154.08287 C69.0171484,154.08287 69.5403282,153.483797 69.0171484,154.08287 Z M63.8610685,158.695155 L64.2609657,152.118667 L60.7252652,157.764482 L59.6130591,157.434391 L59.7297557,150.773851 L56.4772559,156.503717 L55.3547516,156.17057 L59.5872302,149.196424 L60.6633926,149.515817 L60.5475912,156.305484 L64.1647821,150.554993 L65.2409445,150.874387 L64.9732746,159.025247 L63.8610685,158.695155 Z M53.722273,154.620988 L52.582614,154.078454 L51.7315039,146.59439 L48.9842011,152.36543 L48.0676242,151.929093 L51.4590426,144.805012 L52.5405063,145.319842 L53.4472708,152.824452 L56.1922649,147.058262 L57.1136914,147.496907 L53.722273,154.620988 Z M41.7730892,142.937017 C41.968706,142.654353 42.2227106,142.483951 42.5351106,142.425807 C42.8475105,142.367663 43.1450384,142.436398 43.4277031,142.632015 C43.7103678,142.827632 43.879524,143.081863 43.935177,143.394716 C43.99083,143.70757 43.9208491,144.005324 43.7252323,144.287989 C43.5296155,144.570654 43.2766298,144.739583 42.9662675,144.794783 C42.6559051,144.849983 42.3593961,144.779775 42.0767314,144.584158 C41.7940667,144.388541 41.6238916,144.135782 41.566201,143.825873 C41.5085104,143.515964 41.5774724,143.219682 41.7730892,142.937017 C41.7730892,142.937017 41.5774724,143.219682 41.7730892,142.937017 Z M41.7730892,142.937017" id="D-BLOK-STUIDOS-•-WE-" sketch:type="MSShapeGroup" transform="translate(86.430199, 88.207630) rotate(-263.000000) translate(-86.430199, -88.207630) "></path>
            <path d="M46.8425037,38.9033299 C57.7090684,30.2031168 71.4969073,25 86.5,25 C121.570083,25 150,53.4299167 150,88.5 C150,123.570083 121.570083,152 86.5,152 C70.9306288,152 56.6699801,146.396697 45.6246338,137.09667 L52.1606361,137.09667 C61.8618624,143.964244 73.7096302,148 86.5,148 C119.360944,148 146,121.360944 146,88.5 C146,55.6390558 119.360944,29 86.5,29 C74.3434835,29 63.0384588,32.6456673 53.6185979,38.9033299 L46.8425037,38.9033299 L46.8425037,38.9033299 Z M42.5,42.7150675 C30.4802639,54.2690737 23,70.5109817 23,88.5 C23,106.489018 30.4802639,122.730926 42.5,134.284933 L42.5,128.553694 C32.8707743,117.981871 27,103.926532 27,88.5 C27,73.0734675 32.8707743,59.0181286 42.5,48.4463063 L42.5,42.7150675 L42.5,42.7150675 Z M42.5,42.7150675" id="Inner-Ring" sketch:type="MSShapeGroup"></path>
            <path d="M133.541822,72.4369071 C136.660285,81.4077073 137.415616,90.8850147 136.844587,99.0511079 C136.810812,99.5341108 136.838867,99.4285377 136.838867,99.4285377 L95.919815,99.4285377 L95.919815,115.633472 L132.027257,115.586015 L128.57666,121.995357 L86.531155,121.995357 L86.5351512,134.596361 L45.0002118,134.587776 L45.0131531,42.4033299 L92.82742,42.4033299 C92.8989998,42.4033299 93.0568734,42.4065574 93.2952187,42.4166276 C93.7045645,42.4339226 94.1828575,42.4652799 94.7242713,42.5142977 C96.2838479,42.6554963 98.0269042,42.9104206 99.9068497,43.3075627 C105.283812,44.4434563 110.660232,46.4878584 115.670748,49.6633019 C119.603431,52.1556621 123.15189,55.256514 126.226929,59.0270789 C129.376733,62.8893759 131.791176,67.4008695 133.541822,72.4369071 Z M78.1784738,126.441114 L53.0967683,126.441114 L53.0967683,50.5588855 L94.5221199,50.5588855 C94.5221199,50.5588855 108.10444,51.2961793 118.503798,62.1894306 C128.903232,73.0826281 128.903232,91.1372869 128.903232,91.1372869 L87.5165414,91.1372869 L87.6906688,113.828805 L78.1784738,113.828805 L78.1784738,126.441114 Z M78.1784738,126.441114" id="Db" sketch:type="MSShapeGroup"></path>
        </g>
    </g>
</svg>