<?xml version="1.0" encoding="UTF-8" standalone="no"?>
<svg width="17px" height="14px" viewBox="0 0 17 14" version="1.1" xmlns="http://www.w3.org/2000/svg" xmlns:xlink="http://www.w3.org/1999/xlink" xmlns:sketch="http://www.bohemiancoding.com/sketch/ns">
    <title>twitter</title>
    <description>Created with Sketch (http://www.bohemiancoding.com/sketch)</description>
    <defs></defs>
    <g id="Page 1" stroke="none" stroke-width="1" fill="none" fill-rule="evenodd">
        <g id="twitter" transform="translate(-6.000000, -15.000000)" fill="#000000">
            <path d="M22.609375,17.039 C22.020375,17.301 21.388375,17.477 20.724375,17.557 C21.402375,17.151 21.921375,16.508 22.167375,15.741 C21.532375,16.118 20.829375,16.391 20.082375,16.538 C19.484375,15.898 18.630375,15.5 17.687375,15.5 C15.873375,15.5 14.404375,16.971 14.404375,18.783 C14.404375,19.041 14.433375,19.291 14.489375,19.531 C11.761375,19.394 9.342375,18.088 7.722375,16.101 C7.441375,16.586 7.279375,17.15 7.279375,17.752 C7.279375,18.891 8.037375,19.895 8.918375,20.484 C8.379375,20.467 7.609375,20.318 7.609375,20.072 L7.609375,20.115 C7.609375,21.705 8.562375,23.031 10.063375,23.334 C9.787375,23.408 9.409375,23.449 9.109375,23.449 C8.897375,23.449 8.648375,23.428 8.446375,23.388 C8.864375,24.693 10.054375,25.642 11.490375,25.669 C10.367375,26.548 8.940375,27.073 7.403375,27.073 C7.137375,27.073 6.871375,27.057 6.614375,27.028 C8.067375,27.958 9.789375,28.503 11.643375,28.503 C17.682375,28.503 20.981375,23.501 20.981375,19.163 C20.981375,19.02 20.977375,18.878 20.970375,18.737 C21.613375,18.275 22.169375,17.697 22.609375,17.039 L22.609375,17.039 Z M22.609375,17.039"></path>
        </g>
    </g>
</svg>