<?xml version="1.0" encoding="UTF-8" standalone="no"?>
<svg width="17px" height="14px" viewBox="0 0 17 14" version="1.1" xmlns="http://www.w3.org/2000/svg" xmlns:xlink="http://www.w3.org/1999/xlink" xmlns:sketch="http://www.bohemiancoding.com/sketch/ns">
    <title>mail</title>
    <description>Created with Sketch (http://www.bohemiancoding.com/sketch)</description>
    <defs></defs>
    <g id="Page 1" stroke="none" stroke-width="1" fill="none" fill-rule="evenodd">
        <g id="mail" transform="translate(-3.000000, -1.000000)" fill="#000000">
            <path d="M3.963375,5.768 L11.255375,13.061 C11.450375,13.256 11.767375,13.256 11.962375,13.061 L19.255375,5.768 C19.451375,5.572 19.609375,5.638 19.609375,5.914 L19.609375,14 C19.609375,14.553 19.162375,15 18.609375,15 L4.609375,15 C4.056375,15 3.609375,14.553 3.609375,14 L3.609375,5.914 C3.609375,5.638 3.767375,5.572 3.963375,5.768 Z M19.255375,2.939 L11.963375,10.232 C11.768375,10.427 11.451375,10.427 11.256375,10.232 L3.963375,2.939 C3.767375,2.744 3.609375,2.455 3.609375,2.293 L3.609375,2 C3.609375,1.447 4.056375,1 4.609375,1 L18.609375,1 C19.162375,1 19.609375,1.447 19.609375,2 L19.609375,2.293 C19.609375,2.455 19.451375,2.744 19.255375,2.939 Z M19.255375,2.939"></path>
        </g>
    </g>
</svg>