<?xml version="1.0" encoding="UTF-8" standalone="no"?>
<svg width="17px" height="15px" viewBox="0 0 17 15" version="1.1" xmlns="http://www.w3.org/2000/svg" xmlns:xlink="http://www.w3.org/1999/xlink" xmlns:sketch="http://www.bohemiancoding.com/sketch/ns">
    <title>mail--light</title>
    <description>Created with Sketch (http://www.bohemiancoding.com/sketch)</description>
    <defs></defs>
    <g id="Page 1" stroke="none" stroke-width="1" fill="none" fill-rule="evenodd">
        <g id="mail--light" transform="translate(-12.000000, -2.000000)" fill="#FFFFFF">
            <path d="M12.963375,7.1820625 L20.255375,14.4750625 C20.450375,14.6700625 20.767375,14.6700625 20.962375,14.4750625 L28.255375,7.1820625 C28.451375,6.9860625 28.609375,7.0520625 28.609375,7.3280625 L28.609375,15.4140625 C28.609375,15.9670625 28.162375,16.4140625 27.609375,16.4140625 L13.609375,16.4140625 C13.056375,16.4140625 12.609375,15.9670625 12.609375,15.4140625 L12.609375,7.3280625 C12.609375,7.0520625 12.767375,6.9860625 12.963375,7.1820625 Z M28.255375,4.3530625 L20.963375,11.6460625 C20.768375,11.8410625 20.451375,11.8410625 20.256375,11.6460625 L12.963375,4.3530625 C12.767375,4.1580625 12.609375,3.8690625 12.609375,3.7070625 L12.609375,3.4140625 C12.609375,2.8610625 13.056375,2.4140625 13.609375,2.4140625 L27.609375,2.4140625 C28.162375,2.4140625 28.609375,2.8610625 28.609375,3.4140625 L28.609375,3.7070625 C28.609375,3.8690625 28.451375,4.1580625 28.255375,4.3530625 Z M28.255375,4.3530625" id="mail"></path>
        </g>
    </g>
</svg>